<?xml version="1.0" encoding="UTF-8" standalone="no"?><!DOCTYPE svg PUBLIC "-//W3C//DTD SVG 1.1//EN" "http://www.w3.org/Graphics/SVG/1.1/DTD/svg11.dtd"><svg width="100%" height="100%" viewBox="0 0 400 200" version="1.1" xmlns="http://www.w3.org/2000/svg" xmlns:xlink="http://www.w3.org/1999/xlink" xml:space="preserve" xmlns:serif="http://www.serif.com/" style="fill-rule:evenodd;clip-rule:evenodd;stroke-linecap:round;stroke-linejoin:round;stroke-miterlimit:1.5;"><path id="pie_izq" d="M211.847,86.466l40.275,-10.229c20.966,4.774 9.993,40.389 15.566,71.611c0.399,2.119 0.091,4.31 -0.876,6.237c-6.074,12.269 -9.244,27.268 -1.789,33.238c1.643,1.315 11.213,0.069 20.391,4.015c1.359,3.389 -1.382,6.997 -4.48,8.5c-25.735,-2.164 -16.208,1.431 -39.064,-2.83c2.063,-16.372 0.354,-14.592 1.107,-48.256c-25.34,-36.804 -16.58,-58.374 -31.13,-62.286Z" style="fill:#5d391f;stroke:#090400;stroke-width:1px;"/><path id="pelo1" d="M386.947,25.891c5.113,2.009 4.372,-4.869 7.925,-6.042" style="fill:none;stroke:#5d391f;stroke-width:1px;"/><path id="pelo2" d="M369.506,14.348c0.662,4.267 10.62,6.667 17.441,11.543l4.07,-13.574" style="fill:none;stroke:#5d391f;stroke-width:1px;"/><path id="brazo_izq" d="M275.618,51.656c-6.114,18.377 57.113,102.263 96.705,107.556c-1.86,-2.658 12.471,-8.552 18.053,-0.746l2.429,-2.73c0,0 -3.191,-6.652 -4.667,-9.73c-0.632,-1.317 -1.676,-2.391 -2.975,-3.06c-1.98,-1.021 -4.624,-1.603 -8.868,-1.116c-0.249,0.027 -0.5,-0.003 -0.736,-0.087c-16.873,-6.104 -46.593,-28.622 -50.419,-49.53c-1.93,-10.548 -8.392,-45.687 -15.289,-52.593l-34.233,12.036Z" style="fill:#5d391f;stroke:#000;stroke-width:1px;"/><path id="cuerpo" d="M2.6,159.68c39.4,11.4 61.217,4.698 62.804,-54.125c0.873,-10.669 26.371,-41.446 28.68,-39.716c18.679,-18.025 55.132,-22.734 77.343,-20.276c40.101,-12.921 74.709,-28.989 104.317,-42.58c26.382,-5.115 55.178,-5.588 69.574,14.491c23.13,-4.005 39.974,-0.686 45.041,16.353l-3.46,19.253c9.165,20.218 3.783,32.43 -8.429,32.516c-8.772,4.149 -36.209,-11.055 -43.784,-25.875c-60.558,68.403 -226.994,78.161 -188.562,12.853c1.586,-2.694 2.921,-5.936 5.215,-9.147c-23.028,-2.981 -33.753,9.609 -45.654,18.994c-25.412,25.088 -15.881,20.986 -21.997,53.675c-10.253,19.507 -11.525,21.33 -19.548,29.372c-23.193,23.243 -45.607,8.276 -63.152,9.294c-3.207,-4.384 -3.36,-10.015 1.612,-15.082" style="fill:#5d391f;stroke:#090400;stroke-width:1px;"/><path id="barzo_der" d="M294.505,85.855c18.989,36.096 33.912,68.192 52.388,96.281c0,0 -3.028,0.252 -5.572,0.463c-1.913,0.16 -3.355,1.807 -3.259,3.724c0.047,0.947 0.098,1.958 0.142,2.852c0.075,1.498 1.245,2.711 2.74,2.841c18.351,1.441 5.917,2.456 15.816,-0.513c1.224,-0.44 2.215,-1.36 2.745,-2.547c0.531,-1.187 0.555,-2.539 0.066,-3.745c-7.843,-19.423 -35.945,-88.802 -35.945,-88.802c-2.239,-8.359 -3.371,-18.356 -3.285,-30.152c-5.467,-13.6 -15.264,-30.143 -22.904,-34.87c-9.287,-5.747 -19.845,7.594 -20.788,12.382c-1.893,9.609 13.734,25.846 17.856,42.086Z" style="fill:#5d391f;stroke:#090400;stroke-width:1px;"/><path id="pie_der" d="M159.991,106.145c2.941,-23.149 58.644,-20.39 66.344,-4.259c-3.207,0.285 25.777,21.42 11.39,49.738l-25.978,26.46c0.319,11.054 2.373,4.689 16.869,8.488c2.161,4.484 -4.209,11.549 -4.994,13.428l-22.742,-4.395c-8.539,-1.144 -7.125,-8.045 -7.94,-13.97c28.276,-51.151 -17.951,-52.879 -32.949,-75.49Z" style="fill:#5d391f;stroke:#090400;stroke-width:1px;"/><path d="M329.068,36.452c-0.028,-0.261 0.07,-0.521 0.265,-0.698c3.306,-3.042 6.455,-1.605 9.576,0.691c0.13,0.096 0.229,0.227 0.285,0.378c1.51,4.137 -0.343,7.863 -0.634,14.679c-0.023,0.437 -0.232,0.844 -0.574,1.117c-0.342,0.274 -0.784,0.388 -1.216,0.314c-1.413,-0.233 -3.369,-0.567 -4.67,-0.789c-0.815,-0.139 -1.439,-0.804 -1.527,-1.626c-0.367,-3.427 -1.299,-12.137 -1.505,-14.066Z" style="fill:#b36b39;"/><path d="M381.192,35.812c-2.002,-5.202 -3.998,-7.032 -12.137,-5.157c-6.329,4.365 -10.804,7.698 -11.621,11.862c-1.169,3.83 -1.144,7.423 1.224,9.506c3.896,3.425 6.914,5.526 9.364,6.738l0,15.729c5.971,7.419 22.63,6.418 19.885,-8.767c-1.117,-6.176 -3.614,-9.713 -3.359,-14.213c0.356,-6.277 2.156,-13.606 1.641,-16.432l-4.997,0.734Z" style="fill:#cb8150;"/><ellipse cx="383.687" cy="44.62" rx="2.413" ry="2.933" style="fill:#fff;"/><ellipse cx="384.498" cy="45.357" rx="1.615" ry="2.321"/><ellipse cx="377.145" cy="43.15" rx="2.413" ry="2.933" style="fill:#fff;"/><ellipse cx="377.956" cy="43.631" rx="1.615" ry="2.577"/><path d="M377.899,67.294c5.679,-0.313 8.548,0.787 8.991,-4.593"/></svg>