<?xml version="1.0" encoding="UTF-8" standalone="no"?><!DOCTYPE svg PUBLIC "-//W3C//DTD SVG 1.1//EN" "http://www.w3.org/Graphics/SVG/1.1/DTD/svg11.dtd"><svg width="100%" height="100%" viewBox="0 0 400 200" version="1.1" xmlns="http://www.w3.org/2000/svg" xmlns:xlink="http://www.w3.org/1999/xlink" xml:space="preserve" xmlns:serif="http://www.serif.com/" style="fill-rule:evenodd;clip-rule:evenodd;stroke-linecap:round;stroke-linejoin:round;stroke-miterlimit:1.5;"><path id="pie_izq" d="M208.312,88.472l43.644,-12.811c18.576,5.072 11.8,27.958 13.628,51.882c0.678,8.633 -1.166,17.278 -5.309,24.883c-3.257,5.894 -6.631,14.073 -8.39,24.538c-2.344,3.006 5.387,4.521 7.081,6.638c7.428,2.079 15.086,0.421 21.743,5.979c-0.256,2.226 -0.888,4.659 -2.159,7.439c-25.764,-2.148 -24.866,2.085 -47.748,-2.145l-5.404,-55.135c-5.025,-13.443 1.29,-38.925 -17.086,-51.268Z" style="fill:#5d391f;stroke:#090400;stroke-width:1px;"/><path id="pelo1" d="M386.932,25.696c5.119,1.994 9.283,2.057 12.839,0.892" style="fill:none;stroke:#5d391f;stroke-width:1px;"/><path id="pelo2" d="M372.878,11.808c0.663,4.235 7.226,9.048 14.054,13.888l13.068,-10.23" style="fill:none;stroke:#5d391f;stroke-width:1px;"/><path d="M387.356,26.344l11.996,-11.67l-11.996,11.67Z" style="fill:none;"/><path id="brazo_izq" d="M275.478,51.266c-6.121,18.239 55.225,90.859 94.862,96.111l3.905,-1.329l2.379,0.512c2.428,-3.326 6.894,-6.416 10.298,-1.4l2.22,-1.232c0,0 -3.186,-6.584 -4.667,-9.644c-0.636,-1.316 -1.685,-2.387 -2.987,-3.052c-1.983,-1.012 -4.631,-1.589 -8.881,-1.105c-0.245,0.026 -0.493,-0.003 -0.726,-0.084c-16.84,-5.908 -42.994,-17.774 -46.825,-38.525c-1.933,-10.469 -8.402,-45.343 -15.307,-52.197l-34.271,11.945Z" style="fill:#5d391f;stroke:#000;stroke-width:1px;"/><path id="cuerpo" d="M0.856,165.986c35.991,-0.212 70.75,-11.995 81.367,-29.099c2.614,-39.386 10.633,-47.989 20.593,-70.184c18.7,-17.889 46.118,-23.923 68.354,-21.483c40.146,-12.824 74.793,-28.771 104.434,-42.26c26.412,-5.076 55.24,-5.545 69.652,14.382c23.157,-3.975 40.02,-0.681 45.092,16.229l-3.464,19.108c9.176,20.066 3.788,32.186 -8.438,32.271c-8.782,4.117 -36.25,-10.971 -43.833,-25.68c-60.627,67.888 -227.25,77.571 -188.774,12.756c1.587,-2.674 2.924,-5.891 5.22,-9.078c-26.498,-0.495 -37.752,9.195 -42.73,24.22c-3.475,33.694 -1.935,49.546 -21.689,76.53c-27.633,18.314 -53.787,15.713 -86.503,16.197c-3.211,-4.35 -4.259,-8.88 0.719,-13.909" style="fill:#5d391f;stroke:#090400;stroke-width:1px;"/><path id="pie_der" d="M147.198,69.267c0.048,-0.637 0.389,-1.215 0.923,-1.564c0.535,-0.349 1.201,-0.43 1.803,-0.218c26.733,9.502 48.134,26.74 55.613,42.272c-8.279,15.826 -5.534,17.306 -20.032,29.226l-55.076,33.105c0.319,10.97 0.05,12.629 14.562,16.399c2.164,4.45 0.107,7.475 -0.68,9.339l-26.422,-5.691c-12.077,-12.626 -3.959,-10.936 -10.608,-18.849c13.584,-17.232 22.398,-38.976 47.124,-55.979c2.765,-21.58 -7.759,-34.376 -7.207,-48.04Z" style="fill:#5d391f;stroke:#090400;stroke-width:1px;"/><path d="M328.989,36.183c-0.029,-0.263 0.071,-0.524 0.267,-0.701c3.309,-3.016 6.46,-1.59 9.583,0.688c0.131,0.095 0.231,0.226 0.287,0.378c1.51,4.103 -0.342,7.799 -0.635,14.556c-0.023,0.437 -0.232,0.843 -0.573,1.116c-0.341,0.273 -0.783,0.387 -1.214,0.314c-1.415,-0.23 -3.377,-0.563 -4.681,-0.784c-0.816,-0.138 -1.441,-0.802 -1.53,-1.625c-0.367,-3.404 -1.296,-12.018 -1.504,-13.942Z" style="fill:#b36b39;"/><path d="M381.171,35.542c-2.005,-5.163 -4.003,-6.979 -12.151,-5.118c-6.336,4.331 -10.816,7.639 -11.634,11.772c-1.17,3.801 -1.145,7.368 1.226,9.434c3.9,3.4 6.921,5.485 9.374,6.688l0,15.61c5.978,7.363 22.656,6.37 19.907,-8.701c-1.118,-6.129 -3.618,-9.64 -3.362,-14.106c0.356,-6.23 2.158,-13.503 1.643,-16.307l-5.003,0.728Z" style="fill:#cb8150;"/><ellipse cx="383.668" cy="44.284" rx="2.416" ry="2.911" style="fill:#fff;"/><ellipse cx="384.48" cy="44.424" rx="1.617" ry="2.895"/><ellipse cx="377.119" cy="42.824" rx="2.416" ry="2.911" style="fill:#fff;"/><ellipse cx="377.931" cy="42.964" rx="1.617" ry="2.895"/><path d="M377.874,66.786c5.675,-1.8 8.548,-0.662 9.001,-4.558"/><path id="barzo_der" d="M294.386,87.007c11.885,38.142 -12.006,69.614 8.808,97.572c0,0 -3.039,0.257 -5.588,0.471c-1.911,0.161 -3.35,1.807 -3.256,3.722c0.049,0.986 0.101,2.046 0.147,2.977c0.074,1.498 1.243,2.712 2.737,2.843c18.936,1.505 5.141,2.552 16.806,-0.805c2.196,-0.733 3.552,-2.933 3.22,-5.224c-4.152,-29.12 2.879,-53.079 2.958,-92.937c-2.243,-8.472 -0.053,-16.526 0.034,-28.48c-5.474,-13.783 -15.281,-30.547 -22.93,-35.338c-9.298,-5.824 -16.732,1.199 -16.487,6.15c0.548,11.099 12.226,34.153 13.551,49.049Z" style="fill:#5d391f;stroke:#090400;stroke-width:1px;"/></svg>