<?xml version="1.0" encoding="UTF-8" standalone="no"?><!DOCTYPE svg PUBLIC "-//W3C//DTD SVG 1.1//EN" "http://www.w3.org/Graphics/SVG/1.1/DTD/svg11.dtd"><svg width="100%" height="100%" viewBox="0 0 400 200" version="1.1" xmlns="http://www.w3.org/2000/svg" xmlns:xlink="http://www.w3.org/1999/xlink" xml:space="preserve" xmlns:serif="http://www.serif.com/" style="fill-rule:evenodd;clip-rule:evenodd;stroke-linecap:round;stroke-linejoin:round;stroke-miterlimit:1.5;"><path id="pie_izq" d="M209.716,91.618l43.941,-13.282c18.713,5.744 26.788,31.51 40.148,58.333c1.309,2.608 1.396,5.662 0.237,8.34c-1.159,3.707 -2.573,10.467 -4.81,23.774c-2.344,3.005 2.09,11.311 3.784,13.428c7.428,2.079 15.235,0.641 21.892,6.198c-0.256,2.227 -0.904,4.933 -2.175,7.713c-25.764,-2.147 -25.191,2.006 -48.073,-2.223l2.035,-47.611c-5.025,-13.443 -38.603,-42.327 -56.979,-54.67Z" style="fill:#5d391f;stroke:#090400;stroke-width:1px;"/><path id="pelo1" d="M389.556,26.532c5.118,1.994 9.37,2.09 12.926,0.925" style="fill:none;stroke:#5d391f;stroke-width:1px;"/><path id="pelo2" d="M375.405,12.134c0.663,4.235 7.322,9.559 14.151,14.398l13.156,-10.606" style="fill:none;stroke:#5d391f;stroke-width:1px;"/><path d="M389.982,27.204l12.078,-12.099l-12.078,12.099Z" style="fill:none;"/><path id="brazo_izq" d="M277.341,53.044c-5.429,20.232 36.062,111.499 74.267,112.635l3.931,-1.379l2.396,0.531c2.428,-3.326 6.964,-6.467 10.368,-1.451l2.235,-1.278c0,0 -2.113,-4.497 -3.706,-7.887c-1.067,-2.271 -3.314,-3.756 -5.821,-3.847c-3.12,-0.114 -7.142,-0.26 -8.698,-0.317c-0.423,-0.015 -0.825,-0.191 -1.123,-0.491c-13.686,-13.929 -23.321,-38.445 -24.265,-56.151c-0.569,-10.656 -8.175,-45.897 -15.079,-52.75l-34.505,12.385Z" style="fill:#5d391f;stroke:#000;stroke-width:1px;"/><path id="cuerpo" d="M3.436,188.54c35.992,-0.213 71.306,-13.066 81.923,-30.17c2.614,-39.387 8.181,-67.127 18.14,-89.322c18.701,-17.889 46.585,-24.713 68.821,-22.274c40.146,-12.823 75.506,-30.325 105.147,-43.814c26.412,-5.076 55.716,-5.016 70.128,14.911c23.157,-3.974 40.327,-0.084 45.399,16.827l-3.487,19.81c9.176,20.067 3.73,33.373 -8.496,33.459c-8.782,4.117 -36.549,-11.916 -44.132,-26.625c-54.816,63.602 -212.12,65.932 -190.063,13.225c1.199,-2.865 2.96,-6.225 5.256,-9.411c-26.498,-0.496 -38.044,10.085 -43.022,25.11c-3.475,33.694 0.51,68.917 -19.244,95.901c-27.633,18.314 -54.378,16.309 -87.094,16.793c-3.21,-4.35 -4.253,-9.392 0.724,-14.42" style="fill:#5d391f;stroke:#090400;stroke-width:1px;"/><path id="pie_der" d="M145.639,78.878c27.875,9.321 53.574,18.799 61.283,34.808c-8.28,15.827 -15.214,18.381 -29.712,30.301l-67.068,35.605c7.19,6.626 3.688,7.345 16.321,12.303c2.164,4.45 0.102,7.818 -0.684,9.683l-26.603,-5.901c-12.077,-12.626 -4.031,-11.629 -10.68,-19.542c13.583,-17.233 33.091,-34.628 57.817,-51.631c2.944,-22.974 -2.896,-30.916 -0.674,-45.626Z" style="fill:#5d391f;stroke:#090400;stroke-width:1px;"/><path d="M331.215,37.39c-0.028,-0.262 0.072,-0.522 0.268,-0.699c3.312,-3.016 6.525,-1.573 9.651,0.705c0.131,0.095 0.23,0.226 0.287,0.377c1.511,4.121 -0.343,8.318 -0.637,15.148c-0.021,0.44 -0.23,0.85 -0.574,1.126c-0.344,0.275 -0.789,0.39 -1.223,0.314c-1.43,-0.242 -3.415,-0.589 -4.729,-0.818c-0.814,-0.142 -1.435,-0.807 -1.521,-1.629c-0.367,-3.501 -1.315,-12.55 -1.522,-14.524Z" style="fill:#b36b39;"/><path d="M383.755,36.741c-2.005,-5.163 -4.086,-7.167 -12.234,-5.306c-6.336,4.331 -10.896,8.072 -11.714,12.204c-1.169,3.802 -1.137,7.715 1.235,9.782c3.9,3.4 6.985,5.731 9.438,6.933l0,16.185c5.978,7.363 22.791,6.05 20.043,-9.021c-1.118,-6.129 -3.641,-10.159 -3.385,-14.625c0.356,-6.23 2.169,-14.103 1.654,-16.907l-5.037,0.755Z" style="fill:#cb8150;"/><ellipse cx="383.668" cy="44.284" rx="2.416" ry="2.911" style="fill:#fff;"/><ellipse cx="384.48" cy="44.424" rx="1.617" ry="2.895"/><ellipse cx="377.119" cy="42.824" rx="2.416" ry="2.911" style="fill:#fff;"/><ellipse cx="377.931" cy="42.964" rx="1.617" ry="2.895"/><path d="M380.436,69.134c5.674,-1.799 8.609,-0.83 9.062,-4.725"/><path id="barzo_der" d="M294.386,87.007c11.885,38.142 4.22,69.614 25.033,97.572c0,0 -3.039,0.257 -5.588,0.471c-1.91,0.161 -3.35,1.807 -3.256,3.722c0.049,0.986 0.101,2.046 0.147,2.977c0.074,1.498 1.243,2.712 2.737,2.843c18.883,1.501 5.219,2.546 16.708,-0.777c2.261,-0.761 3.616,-3.072 3.175,-5.417c-5.477,-29.047 -13.203,-52.99 -13.124,-92.772c-2.243,-8.472 -0.053,-16.526 0.034,-28.48c-5.474,-13.783 -15.281,-30.547 -22.93,-35.338c-9.298,-5.824 -16.732,1.199 -16.487,6.15c0.548,11.099 12.226,34.153 13.551,49.049Z" style="fill:#5d391f;stroke:#090400;stroke-width:1px;"/></svg>