<?xml version="1.0" encoding="UTF-8" standalone="no"?><!DOCTYPE svg PUBLIC "-//W3C//DTD SVG 1.1//EN" "http://www.w3.org/Graphics/SVG/1.1/DTD/svg11.dtd"><svg width="100%" height="100%" viewBox="0 0 400 200" version="1.1" xmlns="http://www.w3.org/2000/svg" xmlns:xlink="http://www.w3.org/1999/xlink" xml:space="preserve" xmlns:serif="http://www.serif.com/" style="fill-rule:evenodd;clip-rule:evenodd;stroke-linecap:round;stroke-linejoin:round;stroke-miterlimit:1.5;"><path id="pie_izq" d="M208.312,90.341l43.644,-13.081c21.905,4.128 22.044,26.349 28.865,62.323c0.099,0.52 0.239,1.031 0.42,1.528c2.565,7.056 -4.872,15.71 -7.042,29.996c-2.344,3.069 5.475,8.113 7.168,10.275c7.429,2.122 15.087,0.429 21.744,6.104c-0.256,2.274 -0.889,4.758 -2.16,7.597c-25.764,-2.193 -24.865,2.129 -47.748,-2.19l-5.401,-58.738c-5.025,-13.727 -21.114,-31.21 -39.49,-43.814Z" style="fill:#5d391f;stroke:#090400;stroke-width:1px;"/><path id="pelo1" d="M386.932,26.238c5.119,2.036 9.283,2.101 12.839,0.912" style="fill:none;stroke:#5d391f;stroke-width:1px;"/><path id="pelo2" d="M372.878,12.058c0.663,4.324 7.226,9.239 14.054,14.18l13.068,-10.445" style="fill:none;stroke:#5d391f;stroke-width:1px;"/><path d="M387.356,26.9l11.996,-11.916l-11.996,11.916Z" style="fill:none;"/><path id="brazo_izq" d="M275.478,52.349c-5.428,20.659 2.911,125.854 41.116,127.013l3.905,-1.358l2.379,0.523c2.428,-3.396 6.894,-6.551 10.298,-1.429l2.22,-1.259c0,0 -2.083,-4.395 -3.663,-7.73c-1.072,-2.261 -3.314,-3.736 -5.814,-3.827c-2.866,-0.103 -6.492,-0.234 -8.24,-0.298c-0.635,-0.022 -1.201,-0.403 -1.461,-0.982c-7.219,-16.263 -15.649,-43.687 -20.458,-60.454c-2.981,-10.394 13.002,-52.005 6.097,-59.003l-26.379,8.804Z" style="fill:#5d391f;stroke:#000;stroke-width:1px;"/><path id="cuerpo" d="M3.431,185.797c35.992,-0.217 70.75,-12.248 81.367,-29.713c2.615,-40.219 8.058,-65.308 18.018,-87.972c18.7,-18.267 46.118,-24.428 68.354,-21.937c40.146,-13.095 74.793,-29.379 104.434,-43.152c26.412,-5.183 55.24,-5.663 69.652,14.686c23.157,-4.059 40.02,-0.696 45.092,16.571l-3.464,19.512c9.176,20.49 3.788,32.865 -8.438,32.952c-8.782,4.205 -36.25,-11.203 -43.833,-26.222c-54.816,64.945 -210.831,66.846 -188.774,13.025c1.199,-2.925 2.924,-6.015 5.22,-9.269c-26.498,-0.506 -37.752,9.389 -42.73,24.731c-3.475,34.406 0.641,66.898 -19.114,94.452c-27.632,18.701 -53.787,16.044 -86.503,16.539c-3.21,-4.443 -4.258,-9.068 0.719,-14.203" style="fill:#5d391f;stroke:#090400;stroke-width:1px;"/><path id="barzo_der" d="M294.386,87.007c19.011,36.581 19.412,68.276 37.91,96.742c0,0 -3.04,0.256 -5.588,0.471c-1.911,0.161 -3.351,1.806 -3.256,3.721c0.048,0.986 0.101,2.046 0.147,2.977c0.074,1.499 1.242,2.712 2.737,2.843c18.745,1.49 5.416,2.531 16.46,-0.705c2.346,-0.806 3.685,-3.272 3.085,-5.679c-4.675,-18.829 -22.34,-89.675 -22.34,-89.675c-2.243,-8.471 -3.376,-18.602 -3.289,-30.556c-5.474,-13.783 -15.281,-30.547 -22.93,-35.338c-9.298,-5.824 -16.732,1.199 -16.487,6.15c0.548,11.099 12.226,34.153 13.551,49.049Z" style="fill:#5d391f;stroke:#090400;stroke-width:1px;"/><path id="pie_der" d="M144.67,77.793c27.875,9.518 53.158,17.935 60.867,34.282c-8.279,16.161 -15.012,17.672 -29.51,29.843l-66.613,35.067c7.19,6.766 3.577,7.054 16.21,12.117c2.164,4.544 0.106,7.633 -0.68,9.537l-26.422,-5.812c-12.078,-12.893 -3.959,-11.167 -10.608,-19.247c13.583,-17.596 32.7,-33.488 57.425,-50.85c2.944,-23.46 -2.891,-29.917 -0.669,-44.937Z" style="fill:#5d391f;stroke:#090400;stroke-width:1px;"/><path d="M328.989,36.946c-0.028,-0.257 0.066,-0.512 0.254,-0.688c3.31,-3.113 6.469,-1.654 9.599,0.678c0.129,0.095 0.227,0.227 0.282,0.378c1.516,4.197 -0.345,7.976 -0.634,14.897c-0.023,0.438 -0.232,0.846 -0.575,1.119c-0.342,0.274 -0.786,0.388 -1.218,0.313c-1.415,-0.236 -3.375,-0.575 -4.676,-0.8c-0.815,-0.141 -1.437,-0.806 -1.524,-1.628c-0.366,-3.456 -1.3,-12.303 -1.508,-14.269Z" style="fill:#b36b39;"/><path d="M381.171,36.293c-2.005,-5.273 -4.003,-7.127 -12.151,-5.226c-6.336,4.423 -10.816,7.8 -11.634,12.02c-1.17,3.882 -1.145,7.523 1.226,9.634c3.9,3.471 6.921,5.6 9.374,6.829l0,15.94c5.978,7.518 22.656,6.504 19.907,-8.885c-1.118,-6.259 -3.618,-9.844 -3.362,-14.404c0.356,-6.361 2.158,-13.789 1.643,-16.652l-5.003,0.744Z" style="fill:#cb8150;"/><ellipse cx="383.668" cy="45.219" rx="2.416" ry="2.972" style="fill:#fff;"/><ellipse cx="384.48" cy="45.362" rx="1.617" ry="2.956"/><ellipse cx="377.119" cy="43.729" rx="2.416" ry="2.972" style="fill:#fff;"/><ellipse cx="377.931" cy="43.871" rx="1.617" ry="2.956"/><path d="M377.874,68.196c5.675,-1.837 8.548,-0.676 9.001,-4.653"/></svg>