<?xml version="1.0" encoding="UTF-8" standalone="no"?><!DOCTYPE svg PUBLIC "-//W3C//DTD SVG 1.1//EN" "http://www.w3.org/Graphics/SVG/1.1/DTD/svg11.dtd"><svg width="100%" height="100%" viewBox="0 0 400 200" version="1.1" xmlns="http://www.w3.org/2000/svg" xmlns:xlink="http://www.w3.org/1999/xlink" xml:space="preserve" xmlns:serif="http://www.serif.com/" style="fill-rule:evenodd;clip-rule:evenodd;stroke-linecap:round;stroke-linejoin:round;stroke-miterlimit:1.5;"><path id="pelo1" d="M382.259,34.395c4.991,1.838 9.05,1.896 12.518,0.823" style="fill:none;stroke:#5d391f;stroke-width:1px;"/><path id="pelo2" d="M368.556,21.591c0.647,3.905 7.045,8.342 13.703,12.804l12.741,-9.432" style="fill:none;stroke:#5d391f;stroke-width:1px;"/><path d="M382.672,34.992l11.696,-10.759l-11.696,10.759Z" style="fill:none;"/><path d="M8.346,178.46c35.091,-0.196 68.981,-11.059 79.332,-26.828c2.55,-36.314 7.857,-58.967 17.568,-79.43c18.232,-16.493 44.965,-22.056 66.645,-19.807c39.142,-11.823 76.246,-31.094 105.146,-43.531c29.574,-9.105 51.54,-1.706 64.588,17.829c22.578,-3.664 39.019,-0.628 43.964,14.963l-3.377,17.617c8.946,18.5 1.699,26.404 -10.221,26.483c-14.63,-4.521 -34.631,-10.454 -41.833,-22.857c-2.444,11.24 -2.224,22.4 0.66,33.479c20.09,40.963 26.954,59.794 36.28,84.296c-3.905,2.316 -10.724,3.438 -22.125,2.682l-0.032,-7.885l12.802,-0.124c-19.26,-27.471 -39.012,-55.814 -55.286,-88.563c-0.56,1.47 -3.433,1.482 -3.321,3.19c1.162,17.76 10.696,25.35 18.877,38.178l20.983,20.089c0.203,1.383 -1.215,-0.073 0.009,1.051c0.922,0.847 -0.61,2.916 -2.157,5.039c-0.664,0.912 -2.039,3.438 -2.489,3.212c0,0 -3.63,2.387 -3.256,0.143c0.752,-4.522 -3.687,-5.969 -3.156,-7.334c-3.45,-3.974 -8.163,-7.322 -12.012,-10.135c-11.082,-14.07 -15.443,-17.95 -18.356,-17.456c-1.598,-0.951 -8.675,6.476 -11.181,14.623c-2.215,7.2 -0.722,7.221 -3.744,12.943c-1.961,3.712 -9.895,11.794 -13.545,16.477c-1.822,2.337 -2.462,5.4 -2.1,10.401c6.885,1.385 12.96,1.156 22.015,8.004l-1.072,6.016c-16.245,-3.602 -24.325,3.102 -34.547,-0.22c4.366,-23.885 5.273,-50.239 9.466,-67.966c-8.782,-12.334 -28.562,-20.705 -45.876,-29.964c-15.152,23.325 -26.866,32.903 -39.323,45.3c-16.852,11.009 -45.587,22.598 -70.076,31.616c1.847,11.456 11.207,16.443 25.522,17.164l0.694,7.373l-17.897,0.472c-5.408,-4.818 -12.049,-10.15 -23.443,-17.459c4.869,-7.518 9.361,-15.219 12.044,-23.801c21.796,-13.29 21.142,-13.89 42.025,-28.99c3.4,-20.297 3.932,-39.265 5.672,-56.802c-25.836,-0.457 -36.739,9.27 -41.592,23.122c-3.388,31.065 0.624,60.402 -18.636,85.28c-26.942,16.885 -52.443,14.487 -84.34,14.934c-3.131,-4.012 -4.153,-8.188 0.701,-12.824" style="fill:#5d391f;stroke:#090400;stroke-width:1px;"/><path d="M325.77,44.112c-0.032,-0.273 0.076,-0.545 0.286,-0.723c3.211,-2.741 6.27,-1.434 9.302,0.655c0.136,0.094 0.241,0.226 0.301,0.379c1.445,3.752 -0.324,7.14 -0.625,13.288c-0.026,0.432 -0.233,0.833 -0.57,1.104c-0.338,0.271 -0.774,0.387 -1.202,0.318c-1.363,-0.208 -3.235,-0.508 -4.499,-0.71c-0.819,-0.131 -1.451,-0.792 -1.545,-1.616c-0.363,-3.183 -1.238,-10.851 -1.448,-12.695Z" style="fill:#b36b39;"/><path d="M376.642,43.473c-1.955,-4.76 -3.903,-6.434 -11.847,-4.719c-6.178,3.994 -10.546,7.043 -11.344,10.853c-1.14,3.505 -1.116,6.793 1.196,8.699c3.803,3.134 6.748,5.056 9.139,6.165l0,14.392c5.829,6.789 22.09,5.873 19.41,-8.021c-1.09,-5.651 -3.527,-8.888 -3.278,-13.006c0.347,-5.743 2.104,-12.45 1.602,-15.035l-4.878,0.672Z" style="fill:#cb8150;"/><ellipse cx="379.077" cy="51.532" rx="2.355" ry="2.684" style="fill:#fff;"/><ellipse cx="379.868" cy="51.661" rx="1.577" ry="2.669"/><ellipse cx="372.691" cy="50.187" rx="2.355" ry="2.684" style="fill:#fff;"/><ellipse cx="373.483" cy="50.316" rx="1.577" ry="2.669"/><path d="M373.427,72.279c5.533,-1.659 8.335,-0.611 8.777,-4.202"/><path d="M217.729,92.569c25.662,7.761 47.421,9.629 64.539,4.492c7.128,-2.139 14.456,-5.637 19.921,-10.285c-5.118,-11.869 -7.492,-20.335 0.047,-33.395" style="fill:none;stroke:#0c0c0c;stroke-width:1px;"/><path d="M296.328,122.988c-3.208,-7.578 -7.96,-12.721 -9.127,-16.872c-1.427,-5.074 -3.312,-4.175 -4.933,-9.055" style="fill:none;stroke:#000;stroke-width:1px;"/></svg>