<?xml version="1.0" encoding="UTF-8" standalone="no"?><!DOCTYPE svg PUBLIC "-//W3C//DTD SVG 1.1//EN" "http://www.w3.org/Graphics/SVG/1.1/DTD/svg11.dtd"><svg width="100%" height="100%" viewBox="0 0 400 200" version="1.1" xmlns="http://www.w3.org/2000/svg" xmlns:xlink="http://www.w3.org/1999/xlink" xml:space="preserve" xmlns:serif="http://www.serif.com/" style="fill-rule:evenodd;clip-rule:evenodd;stroke-linecap:round;stroke-linejoin:round;stroke-miterlimit:1.5;"><path id="pie_izq" d="M188.153,86.466l-40.275,-10.229c-20.966,4.774 -9.993,40.389 -15.566,71.611c-0.399,2.119 -0.091,4.31 0.876,6.237c6.074,12.269 9.244,27.268 1.789,33.238c-1.643,1.315 -11.213,0.069 -20.391,4.015c-1.359,3.389 1.382,6.997 4.48,8.5c25.735,-2.164 16.208,1.431 39.064,-2.83c-2.063,-16.372 -0.354,-14.592 -1.107,-48.256c25.34,-36.804 16.58,-58.374 31.13,-62.286Z" style="fill:#5d391f;stroke:#090400;stroke-width:1px;"/><path id="pelo1" d="M13.053,25.891c-5.113,2.009 -9.272,2.073 -12.824,0.899" style="fill:none;stroke:#5d391f;stroke-width:1px;"/><path id="pelo2" d="M27.091,11.898c-0.662,4.267 -7.217,9.117 -14.038,13.993l-13.053,-10.307" style="fill:none;stroke:#5d391f;stroke-width:1px;"/><path d="M12.63,26.544l-11.983,-11.758l11.983,11.758Z" style="fill:none;"/><path id="brazo_izq" d="M124.382,51.656c6.114,18.377 -58.814,102.263 -98.406,107.556l-0.977,-4.264c0,0 -10.592,0.166 -13.992,5.22l-3.812,-4.432c0,0 3.191,-6.652 4.667,-9.73c0.632,-1.317 1.676,-2.391 2.975,-3.06c1.98,-1.021 4.624,-1.603 8.868,-1.116c0.249,0.027 0.5,-0.003 0.736,-0.087c16.873,-6.104 46.593,-28.622 50.419,-49.53c1.93,-10.548 8.392,-45.687 15.289,-52.593l34.233,12.036Z" style="fill:#5d391f;stroke:#000;stroke-width:1px;"/><path id="cuerpo" d="M396.102,144.752c-39.4,11.401 -60.568,-3.089 -62.155,-61.912c-0.873,-10.67 -21.179,-40.797 -23.488,-39.067c-18.679,-18.025 -59.675,-0.668 -81.886,1.79c-40.101,-12.921 -74.709,-28.989 -104.317,-42.58c-26.382,-5.115 -55.178,-5.588 -69.574,14.491c-23.13,-4.005 -39.974,-0.686 -45.041,16.353l3.46,19.253c-9.165,20.218 -3.783,32.43 8.429,32.516c8.772,4.149 36.209,-11.055 43.784,-25.875c60.558,68.403 226.994,78.161 188.562,12.853c-1.586,-2.694 -2.921,-5.936 -5.215,-9.147c23.028,-2.981 33.104,-13.107 45.005,-3.722c25.412,25.089 15.881,20.987 21.997,53.675c10.253,19.507 8.536,31.883 16.56,39.925c23.192,23.244 47.946,5.512 65.491,6.529c3.207,-4.383 3.36,-10.015 -1.612,-15.082" style="fill:#5d391f;stroke:#090400;stroke-width:1px;"/><path id="pie_der" d="M240.009,106.145c-2.941,-23.149 -58.644,-20.39 -66.344,-4.259c3.207,0.285 -14.562,12.697 -0.175,41.015l42.593,34.768c-0.319,11.053 0.534,7.181 -13.962,10.98c-2.161,4.484 4.209,11.549 4.994,13.428l22.742,-4.396c8.54,-1.143 7.125,-8.044 7.94,-13.969c-28.276,-51.151 -12.786,-54.956 2.212,-77.567Z" style="fill:#5d391f;stroke:#090400;stroke-width:1px;"/><path d="M70.932,36.452c0.028,-0.261 -0.07,-0.521 -0.265,-0.698c-3.306,-3.042 -6.455,-1.605 -9.576,0.691c-0.13,0.096 -0.229,0.227 -0.285,0.378c-1.51,4.137 0.343,7.863 0.634,14.679c0.023,0.437 0.232,0.844 0.574,1.117c0.342,0.274 0.784,0.388 1.216,0.314c1.413,-0.233 3.369,-0.567 4.67,-0.789c0.815,-0.139 1.439,-0.804 1.527,-1.626c0.367,-3.427 1.299,-12.137 1.505,-14.066Z" style="fill:#b36b39;"/><path d="M18.808,35.812c2.002,-5.202 3.998,-7.032 12.137,-5.157c6.329,4.365 10.804,7.698 11.621,11.862c1.169,3.83 1.144,7.423 -1.224,9.506c-3.896,3.425 -6.914,5.526 -9.364,6.738l0,15.729c-5.971,7.419 -22.63,6.418 -19.885,-8.767c1.117,-6.176 3.614,-9.713 3.359,-14.213c-0.356,-6.277 -2.156,-13.606 -1.641,-16.432l4.997,0.734Z" style="fill:#cb8150;"/><ellipse cx="16.313" cy="44.62" rx="2.413" ry="2.933" style="fill:#fff;"/><ellipse cx="15.502" cy="44.761" rx="1.615" ry="2.917"/><ellipse cx="22.855" cy="43.15" rx="2.413" ry="2.933" style="fill:#fff;"/><ellipse cx="22.044" cy="43.29" rx="1.615" ry="2.917"/><path d="M22.101,67.294c-5.669,-1.814 -8.539,-0.668 -8.991,-4.593"/><path id="barzo_der" d="M114.278,89.875c-2.807,29.252 10.199,55.792 8.086,90.291c0,0 3.04,0.256 5.588,0.471c1.911,0.161 3.35,1.807 3.256,3.722c-0.049,0.986 -0.101,2.046 -0.147,2.977c-0.074,1.498 -1.243,2.712 -2.737,2.842c-19.01,1.512 -5.033,2.561 -16.943,-0.844c-2.111,-0.696 -3.465,-2.753 -3.268,-4.967c1.94,-22.694 -12.535,-35.996 -16.934,-83.29c2.242,-8.471 -3.011,-13.15 -3.097,-25.105c5.473,-13.782 -1.377,-35.359 6.808,-38.972c9.469,-4.18 16.23,6.509 15.838,10.044c-1.224,11.036 4.875,27.935 3.55,42.831Z" style="fill:#5d391f;stroke:#090400;stroke-width:1px;"/></svg>