<?xml version="1.0" encoding="UTF-8" standalone="no"?><!DOCTYPE svg PUBLIC "-//W3C//DTD SVG 1.1//EN" "http://www.w3.org/Graphics/SVG/1.1/DTD/svg11.dtd"><svg width="100%" height="100%" viewBox="0 0 400 200" version="1.1" xmlns="http://www.w3.org/2000/svg" xmlns:xlink="http://www.w3.org/1999/xlink" xml:space="preserve" xmlns:serif="http://www.serif.com/" style="fill-rule:evenodd;clip-rule:evenodd;stroke-linecap:round;stroke-linejoin:round;stroke-miterlimit:1.5;"><path id="pie_izq" d="M191.688,88.472l-43.644,-12.811c-23.098,3.768 -23.334,24.869 -25.43,59.913c-0.089,1.478 0.156,2.957 0.716,4.327c3.931,8.25 14.257,20.591 23.149,31.113c2.345,3.006 6.243,12.081 4.55,14.198c-7.428,2.079 -15.086,0.421 -21.743,5.978c0.255,2.227 0.888,4.659 2.159,7.439c25.764,-2.147 24.865,2.085 47.748,-2.144l-26.995,-65.105c5.025,-13.443 21.114,-30.565 39.49,-42.908Z" style="fill:#5d391f;stroke:#090400;stroke-width:1px;"/><path id="pelo1" d="M13.068,25.696c-5.119,1.994 -9.283,2.057 -12.839,0.892" style="fill:none;stroke:#5d391f;stroke-width:1px;"/><path id="pelo2" d="M27.122,11.808c-0.663,4.235 -7.226,9.048 -14.054,13.888l-13.068,-10.23" style="fill:none;stroke:#5d391f;stroke-width:1px;"/><path d="M12.644,26.344l-11.996,-11.67l11.996,11.67Z" style="fill:none;"/><path id="brazo_izq" d="M124.522,51.266c2.733,18.136 4.729,133.118 -31.208,136.018l-3.904,-1.33l-2.38,0.512c-2.428,-3.326 -6.894,-6.415 -10.298,-1.4l-2.22,-1.232c0,0 2.07,-4.277 3.649,-7.539c1.082,-2.236 3.312,-3.69 5.795,-3.778c2.867,-0.102 6.509,-0.231 8.267,-0.293c0.636,-0.022 1.203,-0.404 1.463,-0.985c6.845,-16.364 5.746,-54.396 10.554,-70.812c2.981,-10.18 -13.002,-50.929 -6.097,-57.783l26.379,8.622Z" style="fill:#5d391f;stroke:#000;stroke-width:1px;"/><path id="cuerpo" d="M396.569,181.954c-35.992,-0.212 -70.75,-11.995 -81.367,-29.099c-2.615,-39.387 -8.058,-63.957 -18.018,-86.152c-18.7,-17.889 -46.118,-23.923 -68.354,-21.483c-40.146,-12.824 -74.793,-28.771 -104.434,-42.26c-26.412,-5.076 -55.24,-5.545 -69.652,14.382c-23.157,-3.975 -40.02,-0.681 -45.092,16.229l3.464,19.108c-9.176,20.066 -3.788,32.186 8.438,32.271c8.782,4.117 36.25,-10.971 43.833,-25.68c54.816,63.602 210.831,65.463 188.774,12.756c-1.199,-2.865 -2.924,-5.891 -5.22,-9.078c26.498,-0.495 37.752,9.195 42.73,24.22c3.475,33.694 -0.641,65.514 19.114,92.498c27.632,18.314 53.787,15.712 86.503,16.197c3.21,-4.351 4.258,-8.88 -0.719,-13.909" style="fill:#5d391f;stroke:#090400;stroke-width:1px;"/><path id="barzo_der" d="M105.614,85.207c-19.011,35.824 -33.95,67.677 -52.448,95.554c0,0 3.032,0.251 5.579,0.461c1.914,0.158 3.358,1.807 3.261,3.725c-0.046,0.924 -0.096,1.907 -0.14,2.78c-0.075,1.499 -1.247,2.712 -2.742,2.84c-18.359,1.429 -5.945,2.437 -15.812,-0.502c-1.228,-0.439 -2.224,-1.362 -2.755,-2.553c-0.532,-1.191 -0.553,-2.548 -0.06,-3.755c7.885,-19.356 35.962,-88.076 35.962,-88.076c2.243,-8.296 3.376,-18.217 3.289,-29.924c5.474,-13.498 15.281,-29.915 22.93,-34.607c9.298,-5.703 16.732,1.174 16.487,6.023c-0.548,10.87 -12.226,33.446 -13.551,48.034Z" style="fill:#5d391f;stroke:#090400;stroke-width:1px;"/><path id="pie_der" d="M255.33,76.184c-27.875,9.321 -53.158,17.563 -60.867,33.573c8.279,15.826 15.012,17.306 29.51,29.226l70.672,33.636c-3.493,13.161 -12.854,18.566 -26.268,18.924c-2.164,4.45 -1.695,6.593 -0.909,8.457l20.07,-0.398c10.509,-5.6 19.861,-13.161 27.195,-24.142c-13.583,-17.233 -35.347,-38.266 -60.072,-55.269c-2.944,-22.975 2.891,-29.297 0.669,-44.007Z" style="fill:#5d391f;stroke:#090400;stroke-width:1px;"/><path d="M71.011,36.183c0.029,-0.263 -0.071,-0.524 -0.267,-0.701c-3.309,-3.016 -6.46,-1.59 -9.583,0.688c-0.131,0.095 -0.231,0.226 -0.287,0.378c-1.51,4.103 0.342,7.799 0.635,14.556c0.023,0.437 0.232,0.843 0.573,1.116c0.341,0.273 0.783,0.387 1.214,0.314c1.415,-0.23 3.377,-0.563 4.681,-0.784c0.816,-0.138 1.441,-0.802 1.53,-1.625c0.367,-3.404 1.296,-12.018 1.504,-13.942Z" style="fill:#b36b39;"/><path d="M18.829,35.542c2.005,-5.163 4.003,-6.979 12.151,-5.118c6.336,4.331 10.816,7.639 11.634,11.772c1.17,3.801 1.145,7.368 -1.226,9.434c-3.9,3.4 -6.921,5.485 -9.374,6.688l0,15.61c-5.978,7.363 -22.656,6.37 -19.907,-8.701c1.118,-6.129 3.618,-9.64 3.362,-14.106c-0.356,-6.23 -2.158,-13.503 -1.643,-16.307l5.003,0.728Z" style="fill:#cb8150;"/><ellipse cx="16.332" cy="44.284" rx="2.416" ry="2.911" style="fill:#fff;"/><ellipse cx="15.52" cy="44.424" rx="1.617" ry="2.895"/><ellipse cx="22.881" cy="42.824" rx="2.416" ry="2.911" style="fill:#fff;"/><ellipse cx="22.069" cy="42.964" rx="1.617" ry="2.895"/><path d="M22.126,66.786c-5.675,-1.8 -8.548,-0.662 -9.001,-4.558"/></svg>