<?xml version="1.0" encoding="UTF-8" standalone="no"?><!DOCTYPE svg PUBLIC "-//W3C//DTD SVG 1.1//EN" "http://www.w3.org/Graphics/SVG/1.1/DTD/svg11.dtd"><svg width="100%" height="100%" viewBox="0 0 400 200" version="1.1" xmlns="http://www.w3.org/2000/svg" xmlns:xlink="http://www.w3.org/1999/xlink" xml:space="preserve" xmlns:serif="http://www.serif.com/" style="fill-rule:evenodd;clip-rule:evenodd;stroke-linecap:round;stroke-linejoin:round;stroke-miterlimit:1.5;"><path id="pie_izq" d="M189.112,88.472l-43.643,-12.811c-18.576,5.072 -11.801,27.958 -13.629,51.882c-0.678,8.633 1.166,17.278 5.309,24.883c3.257,5.894 6.631,14.073 8.39,24.538c2.345,3.006 -5.387,4.521 -7.08,6.638c-7.428,2.079 -15.087,0.421 -21.744,5.979c0.256,2.226 0.889,4.659 2.16,7.439c25.764,-2.148 24.865,2.085 47.748,-2.145l5.404,-55.135c5.024,-13.443 -1.291,-38.925 17.085,-51.268Z" style="fill:#5d391f;stroke:#090400;stroke-width:1px;"/><path id="pelo1" d="M10.492,25.696c-5.119,1.994 -9.282,2.057 -12.839,0.892" style="fill:none;stroke:#5d391f;stroke-width:1px;"/><path id="pelo2" d="M24.546,11.808c-0.663,4.235 -7.225,9.048 -14.054,13.888l-13.067,-10.23" style="fill:none;stroke:#5d391f;stroke-width:1px;"/><path d="M10.068,26.344l-11.996,-11.67l11.996,11.67Z" style="fill:none;"/><path id="brazo_izq" d="M121.946,51.266c6.122,18.239 -55.225,90.859 -94.861,96.111l-3.905,-1.329l-2.38,0.512c-2.427,-3.326 -6.894,-6.416 -10.298,-1.4l-2.22,-1.232c0,0 3.187,-6.584 4.667,-9.644c0.637,-1.316 1.686,-2.387 2.988,-3.052c1.982,-1.012 4.631,-1.589 8.88,-1.105c0.246,0.026 0.494,-0.003 0.726,-0.084c16.841,-5.908 42.995,-17.774 46.826,-38.525c1.932,-10.469 8.401,-45.343 15.306,-52.197l34.271,11.945Z" style="fill:#5d391f;stroke:#000;stroke-width:1px;"/><path id="cuerpo" d="M396.569,165.986c-35.992,-0.212 -70.75,-11.995 -81.367,-29.099c-2.615,-39.386 -10.634,-47.989 -20.593,-70.184c-18.701,-17.889 -46.119,-23.923 -68.355,-21.483c-40.145,-12.824 -74.792,-28.771 -104.433,-42.26c-26.412,-5.076 -55.241,-5.545 -69.653,14.382c-23.156,-3.975 -40.019,-0.681 -45.091,16.229l3.464,19.108c-9.176,20.066 -3.788,32.186 8.437,32.271c8.783,4.117 36.25,-10.971 43.834,-25.68c60.626,67.888 227.249,77.571 188.774,12.756c-1.587,-2.674 -2.924,-5.891 -5.22,-9.078c26.498,-0.495 37.752,9.195 42.729,24.22c3.475,33.694 1.935,49.546 21.69,76.53c27.632,18.314 53.787,15.713 86.503,16.197c3.21,-4.35 4.258,-8.88 -0.719,-13.909" style="fill:#5d391f;stroke:#090400;stroke-width:1px;"/><path id="pie_der" d="M250.226,69.267c-0.047,-0.637 -0.388,-1.215 -0.923,-1.564c-0.534,-0.349 -1.201,-0.43 -1.803,-0.218c-26.732,9.502 -48.134,26.74 -55.613,42.272c8.28,15.826 5.535,17.306 20.033,29.226l55.075,33.105c-0.319,10.97 -0.049,12.629 -14.561,16.399c-2.164,4.45 -0.107,7.475 0.679,9.339l26.423,-5.691c12.077,-12.626 3.958,-10.936 10.607,-18.849c-13.583,-17.232 -22.398,-38.976 -47.123,-55.979c-2.766,-21.58 7.759,-34.376 7.206,-48.04Z" style="fill:#5d391f;stroke:#090400;stroke-width:1px;"/><path d="M68.436,36.183c0.028,-0.263 -0.071,-0.524 -0.268,-0.701c-3.308,-3.016 -6.46,-1.59 -9.583,0.688c-0.13,0.095 -0.23,0.226 -0.287,0.378c-1.509,4.103 0.342,7.799 0.636,14.556c0.023,0.437 0.231,0.843 0.573,1.116c0.341,0.273 0.783,0.387 1.214,0.314c1.415,-0.23 3.376,-0.563 4.68,-0.784c0.816,-0.138 1.441,-0.802 1.53,-1.625c0.367,-3.404 1.297,-12.018 1.505,-13.942Z" style="fill:#b36b39;"/><path d="M16.253,35.542c2.005,-5.163 4.003,-6.979 12.152,-5.118c6.336,4.331 10.816,7.639 11.634,11.772c1.169,3.801 1.145,7.368 -1.226,9.434c-3.901,3.4 -6.921,5.485 -9.374,6.688l0,15.61c-5.978,7.363 -22.656,6.37 -19.907,-8.701c1.117,-6.129 3.617,-9.64 3.362,-14.106c-0.357,-6.23 -2.159,-13.503 -1.643,-16.307l5.002,0.728Z" style="fill:#cb8150;"/><ellipse cx="13.756" cy="44.284" rx="2.416" ry="2.911" style="fill:#fff;"/><ellipse cx="12.944" cy="44.424" rx="1.617" ry="2.895"/><ellipse cx="20.306" cy="42.824" rx="2.416" ry="2.911" style="fill:#fff;"/><ellipse cx="19.494" cy="42.964" rx="1.617" ry="2.895"/><path d="M19.55,66.786c-5.675,-1.8 -8.548,-0.662 -9.001,-4.558"/><path id="barzo_der" d="M103.038,87.007c-11.884,38.142 12.006,69.614 -8.808,97.572c0,0 3.04,0.257 5.589,0.471c1.91,0.161 3.35,1.807 3.255,3.722c-0.048,0.986 -0.1,2.046 -0.146,2.977c-0.074,1.498 -1.243,2.712 -2.737,2.843c-18.937,1.505 -5.141,2.552 -16.806,-0.805c-2.196,-0.733 -3.553,-2.933 -3.221,-5.224c4.153,-29.12 -2.878,-53.079 -2.957,-92.937c2.242,-8.472 0.052,-16.526 -0.034,-28.48c5.473,-13.783 15.281,-30.547 22.93,-35.338c9.297,-5.824 16.731,1.199 16.487,6.15c-0.548,11.099 -12.227,34.153 -13.552,49.049Z" style="fill:#5d391f;stroke:#090400;stroke-width:1px;"/></svg>