<?xml version="1.0" encoding="UTF-8" standalone="no"?><!DOCTYPE svg PUBLIC "-//W3C//DTD SVG 1.1//EN" "http://www.w3.org/Graphics/SVG/1.1/DTD/svg11.dtd"><svg width="100%" height="100%" viewBox="0 0 400 200" version="1.1" xmlns="http://www.w3.org/2000/svg" xmlns:xlink="http://www.w3.org/1999/xlink" xml:space="preserve" xmlns:serif="http://www.serif.com/" style="fill-rule:evenodd;clip-rule:evenodd;stroke-linecap:round;stroke-linejoin:round;stroke-miterlimit:1.5;"><path id="pie_izq" d="M192.999,91.618l-43.941,-13.282c-18.713,5.744 -26.788,31.51 -40.148,58.333c-1.309,2.608 -1.396,5.662 -0.237,8.34c1.159,3.707 2.573,10.467 4.81,23.774c2.344,3.005 -2.09,11.311 -3.784,13.428c-7.428,2.079 -15.235,0.641 -21.892,6.198c0.256,2.227 0.904,4.933 2.175,7.713c25.763,-2.147 25.191,2.006 48.073,-2.223l-2.035,-47.611c5.024,-13.443 38.603,-42.327 56.979,-54.67Z" style="fill:#5d391f;stroke:#090400;stroke-width:1px;"/><path id="pelo1" d="M13.159,26.532c-5.118,1.994 -9.37,2.09 -12.926,0.925" style="fill:none;stroke:#5d391f;stroke-width:1px;"/><path id="pelo2" d="M27.309,12.134c-0.662,4.235 -7.321,9.559 -14.15,14.398l-13.156,-10.606" style="fill:none;stroke:#5d391f;stroke-width:1px;"/><path d="M12.733,27.204l-12.078,-12.099l12.078,12.099Z" style="fill:none;"/><path id="brazo_izq" d="M125.374,53.044c5.429,20.232 -36.062,111.499 -74.267,112.635l-3.931,-1.379l-2.396,0.531c-2.428,-3.326 -6.964,-6.467 -10.369,-1.451l-2.234,-1.278c0,0 2.113,-4.497 3.706,-7.887c1.067,-2.271 3.314,-3.756 5.821,-3.847c3.12,-0.114 7.142,-0.26 8.698,-0.317c0.423,-0.015 0.825,-0.191 1.123,-0.491c13.686,-13.929 23.321,-38.445 24.265,-56.151c0.568,-10.656 8.174,-45.897 15.079,-52.75l34.505,12.385Z" style="fill:#5d391f;stroke:#000;stroke-width:1px;"/><path id="cuerpo" d="M399.279,188.54c-35.992,-0.213 -71.306,-13.066 -81.923,-30.17c-2.614,-39.387 -8.181,-67.127 -18.14,-89.322c-18.701,-17.889 -46.585,-24.713 -68.821,-22.274c-40.146,-12.823 -75.506,-30.325 -105.147,-43.814c-26.412,-5.076 -55.716,-5.016 -70.128,14.911c-23.157,-3.974 -40.327,-0.084 -45.4,16.827l3.488,19.81c-9.176,20.067 -3.73,33.373 8.495,33.459c8.783,4.117 36.549,-11.916 44.133,-26.625c54.816,63.602 212.12,65.932 190.063,13.225c-1.199,-2.865 -2.96,-6.225 -5.256,-9.411c26.498,-0.496 38.044,10.085 43.022,25.11c3.475,33.694 -0.51,68.917 19.244,95.901c27.633,18.314 54.378,16.309 87.094,16.793c3.21,-4.35 4.253,-9.392 -0.724,-14.42" style="fill:#5d391f;stroke:#090400;stroke-width:1px;"/><path id="pie_der" d="M257.076,78.878c-27.875,9.321 -53.574,18.799 -61.283,34.808c8.28,15.827 15.214,18.381 29.711,30.301l67.069,35.605c-7.19,6.626 -3.688,7.345 -16.321,12.303c-2.164,4.45 -0.102,7.818 0.684,9.683l26.603,-5.901c12.077,-12.626 4.031,-11.629 10.68,-19.542c-13.583,-17.233 -33.092,-34.628 -57.817,-51.631c-2.944,-22.974 2.896,-30.916 0.674,-45.626Z" style="fill:#5d391f;stroke:#090400;stroke-width:1px;"/><path d="M71.5,37.39c0.028,-0.262 -0.072,-0.522 -0.268,-0.699c-3.312,-3.016 -6.526,-1.573 -9.651,0.705c-0.131,0.095 -0.23,0.226 -0.287,0.377c-1.511,4.121 0.342,8.318 0.637,15.148c0.021,0.44 0.23,0.85 0.574,1.126c0.344,0.275 0.789,0.39 1.223,0.314c1.43,-0.242 3.415,-0.589 4.728,-0.818c0.815,-0.142 1.436,-0.807 1.522,-1.629c0.367,-3.501 1.315,-12.55 1.522,-14.524Z" style="fill:#b36b39;"/><path d="M18.96,36.741c2.005,-5.163 4.086,-7.167 12.234,-5.306c6.336,4.331 10.896,8.072 11.713,12.204c1.17,3.802 1.138,7.715 -1.234,9.782c-3.9,3.4 -6.985,5.731 -9.438,6.933l0,16.185c-5.978,7.363 -22.791,6.05 -20.043,-9.021c1.118,-6.129 3.641,-10.159 3.385,-14.625c-0.356,-6.23 -2.169,-14.103 -1.654,-16.907l5.037,0.755Z" style="fill:#cb8150;"/><ellipse cx="19.046" cy="44.284" rx="2.416" ry="2.911" style="fill:#fff;"/><ellipse cx="18.235" cy="44.424" rx="1.617" ry="2.895"/><ellipse cx="25.596" cy="42.824" rx="2.416" ry="2.911" style="fill:#fff;"/><ellipse cx="24.784" cy="42.964" rx="1.617" ry="2.895"/><path d="M22.279,69.134c-5.675,-1.799 -8.609,-0.83 -9.062,-4.725"/><path id="barzo_der" d="M108.328,87.007c-11.884,38.142 -4.219,69.614 -25.032,97.572c0,0 3.039,0.257 5.588,0.471c1.91,0.161 3.35,1.807 3.255,3.722c-0.048,0.986 -0.1,2.046 -0.146,2.977c-0.074,1.498 -1.243,2.712 -2.737,2.843c-18.883,1.501 -5.219,2.546 -16.708,-0.777c-2.261,-0.761 -3.616,-3.072 -3.176,-5.417c5.478,-29.047 13.204,-52.99 13.125,-92.772c2.243,-8.472 0.052,-16.526 -0.034,-28.48c5.474,-13.783 15.281,-30.547 22.93,-35.338c9.298,-5.824 16.732,1.199 16.487,6.15c-0.548,11.099 -12.226,34.153 -13.552,49.049Z" style="fill:#5d391f;stroke:#090400;stroke-width:1px;"/></svg>