<?xml version="1.0" encoding="UTF-8" standalone="no"?><!DOCTYPE svg PUBLIC "-//W3C//DTD SVG 1.1//EN" "http://www.w3.org/Graphics/SVG/1.1/DTD/svg11.dtd"><svg width="100%" height="100%" viewBox="0 0 400 200" version="1.1" xmlns="http://www.w3.org/2000/svg" xmlns:xlink="http://www.w3.org/1999/xlink" xml:space="preserve" xmlns:serif="http://www.serif.com/" style="fill-rule:evenodd;clip-rule:evenodd;stroke-linecap:round;stroke-linejoin:round;stroke-miterlimit:1.5;"><path id="pie_izq" d="M181.727,86.466l-40.276,-10.229c-20.965,4.774 -9.993,40.389 -15.566,71.611c-0.398,2.119 -0.09,4.31 0.877,6.237c6.073,12.269 9.244,27.268 1.788,33.238c-1.642,1.315 -11.213,0.069 -20.391,4.015c-1.358,3.389 1.382,6.997 4.48,8.5c25.735,-2.164 16.208,1.431 39.065,-2.83c-2.063,-16.372 -0.355,-14.592 -1.108,-48.256c25.341,-36.804 16.58,-58.374 31.131,-62.286Z" style="fill:#5d391f;stroke:#090400;stroke-width:1px;"/><path id="pelo1" d="M6.626,25.891c-5.113,2.009 -4.372,-4.869 -7.924,-6.042" style="fill:none;stroke:#5d391f;stroke-width:1px;"/><path id="pelo2" d="M24.067,14.348c-0.662,4.267 -10.62,6.667 -17.441,11.543l-4.069,-13.574" style="fill:none;stroke:#5d391f;stroke-width:1px;"/><path id="brazo_izq" d="M117.955,51.656c6.115,18.377 -57.113,102.263 -96.705,107.556c1.86,-2.658 -12.471,-8.552 -18.052,-0.746l-2.43,-2.73c0,0 3.191,-6.652 4.668,-9.73c0.631,-1.317 1.676,-2.391 2.974,-3.06c1.98,-1.021 4.625,-1.603 8.869,-1.116c0.249,0.027 0.5,-0.003 0.736,-0.087c16.872,-6.104 46.592,-28.622 50.418,-49.53c1.931,-10.548 8.393,-45.687 15.29,-52.593l34.232,12.036Z" style="fill:#5d391f;stroke:#000;stroke-width:1px;"/><path id="cuerpo" d="M390.974,159.68c-39.4,11.4 -61.218,4.698 -62.804,-54.125c-0.873,-10.669 -26.371,-41.446 -28.681,-39.716c-18.679,-18.025 -55.132,-22.734 -77.343,-20.276c-40.1,-12.921 -74.709,-28.989 -104.316,-42.58c-26.383,-5.115 -55.178,-5.588 -69.574,14.491c-23.131,-4.005 -39.975,-0.686 -45.041,16.353l3.46,19.253c-9.166,20.218 -3.784,32.43 8.428,32.516c8.772,4.149 36.209,-11.055 43.784,-25.875c60.559,68.403 226.994,78.161 188.562,12.853c-1.585,-2.694 -2.921,-5.936 -5.214,-9.147c23.027,-2.981 33.753,9.609 45.654,18.994c25.412,25.088 15.881,20.986 21.997,53.675c10.252,19.507 11.524,21.33 19.548,29.372c23.192,23.243 45.606,8.276 63.152,9.294c3.207,-4.384 3.36,-10.015 -1.612,-15.082" style="fill:#5d391f;stroke:#090400;stroke-width:1px;"/><path id="barzo_der" d="M99.068,85.855c-18.989,36.096 -33.911,68.192 -52.388,96.281c0,0 3.028,0.252 5.572,0.463c1.913,0.16 3.355,1.807 3.259,3.724c-0.047,0.947 -0.097,1.958 -0.142,2.852c-0.075,1.498 -1.245,2.711 -2.74,2.841c-18.351,1.441 -5.917,2.456 -15.816,-0.513c-1.223,-0.44 -2.214,-1.36 -2.745,-2.547c-0.53,-1.187 -0.554,-2.539 -0.066,-3.745c7.843,-19.423 35.945,-88.802 35.945,-88.802c2.24,-8.359 3.371,-18.356 3.285,-30.152c5.467,-13.6 15.264,-30.143 22.904,-34.87c9.287,-5.747 19.845,7.594 20.789,12.382c1.893,9.609 -13.734,25.846 -17.857,42.086Z" style="fill:#5d391f;stroke:#090400;stroke-width:1px;"/><path id="pie_der" d="M233.582,106.145c-2.941,-23.149 -58.643,-20.39 -66.344,-4.259c3.208,0.285 -25.777,21.42 -11.389,49.738l25.978,26.46c-0.319,11.054 -2.373,4.689 -16.869,8.488c-2.162,4.484 4.208,11.549 4.993,13.428l22.742,-4.395c8.54,-1.144 7.125,-8.045 7.94,-13.97c-28.276,-51.151 17.952,-52.879 32.949,-75.49Z" style="fill:#5d391f;stroke:#090400;stroke-width:1px;"/><path d="M64.505,36.452c0.029,-0.261 -0.07,-0.521 -0.265,-0.698c-3.306,-3.042 -6.454,-1.605 -9.575,0.691c-0.13,0.096 -0.229,0.227 -0.285,0.378c-1.511,4.137 0.342,7.863 0.634,14.679c0.023,0.437 0.231,0.844 0.573,1.117c0.342,0.274 0.785,0.388 1.216,0.314c1.413,-0.233 3.369,-0.567 4.67,-0.789c0.816,-0.139 1.44,-0.804 1.528,-1.626c0.366,-3.427 1.298,-12.137 1.504,-14.066Z" style="fill:#b36b39;"/><path d="M12.381,35.812c2.003,-5.202 3.998,-7.032 12.138,-5.157c6.329,4.365 10.804,7.698 11.621,11.862c1.168,3.83 1.144,7.423 -1.225,9.506c-3.896,3.425 -6.913,5.526 -9.363,6.738l0,15.729c-5.972,7.419 -22.631,6.418 -19.885,-8.767c1.116,-6.176 3.613,-9.713 3.358,-14.213c-0.356,-6.277 -2.156,-13.606 -1.641,-16.432l4.997,0.734Z" style="fill:#cb8150;"/><ellipse cx="9.887" cy="44.62" rx="2.413" ry="2.933" style="fill:#fff;"/><ellipse cx="9.076" cy="45.357" rx="1.615" ry="2.321"/><ellipse cx="16.429" cy="43.15" rx="2.413" ry="2.933" style="fill:#fff;"/><ellipse cx="15.618" cy="43.631" rx="1.615" ry="2.577"/><path d="M15.674,67.294c-5.678,-0.313 -8.548,0.787 -8.991,-4.593"/></svg>