<?xml version="1.0" encoding="UTF-8" standalone="no"?><!DOCTYPE svg PUBLIC "-//W3C//DTD SVG 1.1//EN" "http://www.w3.org/Graphics/SVG/1.1/DTD/svg11.dtd"><svg width="100%" height="100%" viewBox="0 0 100 100" version="1.1" xmlns="http://www.w3.org/2000/svg" xmlns:xlink="http://www.w3.org/1999/xlink" xml:space="preserve" xmlns:serif="http://www.serif.com/" style="fill-rule:evenodd;clip-rule:evenodd;stroke-linecap:round;stroke-linejoin:round;stroke-miterlimit:1.5;"><path d="M7.076,69.788c62.194,10.483 63.081,-38.949 70.279,-47.437c0.251,-4.908 0.181,-7.219 -3.819,-11.077c4.717,-1.299 5.991,-3.212 8.233,-7.932l3.417,14.461c43.437,29.425 -33.52,118.637 -82.497,61.469c6.442,1.285 9.507,-2.048 4.387,-9.484Z" style="fill:#f2d41c;stroke:#000;stroke-width:1px;"/><path d="M78.398,23.172l0.71,1.513l2.582,-3.828l1.292,1.155c2.58,-5.078 0.295,-13.181 -1.444,-18.846c-1.208,4.367 -3.503,7.344 -7.622,7.985c3.084,2.901 4.645,6.861 4.482,12.021Z" style="fill:#9a780e;stroke:#000;stroke-width:1px;"/><path d="M70.286,9.485c0.632,0.683 1.717,2.532 3.565,1.99c4.247,-1.418 8.308,-4.597 7.576,-8.385c-1.928,-0.783 -2.972,-1.24 -3.621,-1.045c-2.895,0.821 -5.869,3.822 -7.52,7.44Z" style="fill:#bd9631;stroke:#000;stroke-width:1px;"/><path d="M5.091,68.904c-2.12,-1.553 -2.165,1.514 -3.091,6.797l0.844,4.107c7.416,0.949 9.773,-6.335 2.784,-10.955l-0.537,0.051Z" style="fill:#673f01;stroke:#000;stroke-width:1px;"/></svg>