<?xml version="1.0" encoding="UTF-8" standalone="no"?><!DOCTYPE svg PUBLIC "-//W3C//DTD SVG 1.1//EN" "http://www.w3.org/Graphics/SVG/1.1/DTD/svg11.dtd"><svg width="100%" height="100%" viewBox="0 0 1080 1080" version="1.1" xmlns="http://www.w3.org/2000/svg" xmlns:xlink="http://www.w3.org/1999/xlink" xml:space="preserve" xmlns:serif="http://www.serif.com/" style="fill-rule:evenodd;clip-rule:evenodd;stroke-linejoin:round;stroke-miterlimit:1.41421;"><rect x="0" y="0" width="1080" height="1080" style="fill:#9de3d4;"/><path d="M0,840.165c0.215,0.971 229.19,23.766 356.307,14.468c42.215,0.132 67.719,-1.771 97.349,-17.872c58.142,-14.94 121.128,-24.087 190.651,-25.414c123.366,5.599 247.819,13.77 368.173,12.239c5.906,-0.082 11.752,1.203 17.08,3.753c14.445,6.974 30.45,9.416 51.148,12.957l-0.708,239.703l-1079.17,-0.944l-0.834,-238.89Z" style="fill:#72a01c;"/><path d="M504.974,320.548c-8.123,-1.429 -8.619,-0.579 -7.543,5.029c-4.265,22.569 2.489,3.124 -10.655,1.982c-1.484,1.273 -1.718,5.348 -1.734,9.911c-0.21,1.222 -4.059,-1.155 -4.634,-0.229c-1.145,1.846 0.535,6.633 -1.313,7.911c-3.118,-1.639 -5.886,-4.012 -7.681,-8.425l0.2,-14.601c-1.351,5.007 -2.883,8.606 -5.156,6.424c-2.821,-1.019 -4.421,-3.231 -3.221,-8.177c2.266,-4.137 2.569,-7.761 -0.981,-7.802c-1.593,-0.019 -1.056,-6.871 -0.232,-6.733c5.411,0.909 1.898,-4.149 4.216,-9.5c3.109,0.536 5.461,0.317 1.534,-6.18c-0.365,-2.136 -1.325,-3.678 -1.31,-5.696c-1.864,0.646 -6.252,2.5 -7.727,-1.359c0.266,-1.783 -1.061,-5.574 0.728,-5.357c3.242,0.394 2.312,-1.254 2.331,-5.011c0.005,-1.028 1.032,-0.578 0.853,-0.788c-0.885,-1.033 -5.081,1.304 -5.372,-0.592c-0.721,-4.687 4.945,-14.893 0.876,-16.588c-5.25,-2.121 -5.452,-0.195 -7.306,6.385l0.616,11.518c0.045,7.343 -3.652,3.855 -8.545,-3.093c-3.597,2.819 -0.746,10.041 -0.364,17.3c-5.098,1.816 -8.22,-0.101 -7.317,-9.619c-2.511,2.312 -4.766,2.218 -6.69,-0.991c-0.626,-7.334 -1.744,-14.911 1.531,-20.321c-2.987,3.617 -6.379,6.265 -10.699,6.693l-1.487,10.159c-6.473,2.615 -7.728,-3.241 -8.177,-10.407l-1.935,10.171c-2.4,0.276 -2.796,1.019 -4.967,-0.684l-0.036,-13.699c-0.69,-1.998 -1.76,-3.02 -4.212,-0.496l-1.52,9.031c-2.563,2.562 -3.976,2.059 -4.436,-0.985c-0.786,-4.497 -3.575,-8.697 -0.51,-11.42c-1.473,-0.106 -2.794,-0.357 -3.347,-1.325c0.389,-2.739 1.344,-7.96 -0.118,-9.761c-1.084,-1.335 -4.364,0.581 -5.629,-0.416c-4.522,-0.981 -4.415,-6.798 -1.472,-14.497c6.431,5.688 4.252,4.734 3.624,-2.977c-0.119,-1.463 0.656,-4.64 -0.393,-4.968c-1.351,-0.424 -3.054,-1.517 -4.018,-3.11l-1.013,-11.855c7.684,3.45 10.324,3.224 1.865,-5.087c-0.455,-3.612 1.013,-6.451 3.789,-9.374c-9.033,-5.234 -13.929,-11.11 -11.893,-19.443c-4.159,-5.334 3.045,-7.071 7.286,-11.811c2.256,-2.52 0.475,-8.378 2.765,-10.583c8.798,3.16 6.401,-2.333 10.562,-9.88c-15.64,-11.222 -9.602,-11.579 -5.529,-14.899c-4.033,-11.937 0.726,-19.124 15.487,-20.907c-9.121,-10.954 -7.671,-16.617 1.936,-18.196l42.201,-21.294l1.936,18.971l18.197,-36.007l10.84,11.615l14.325,-18.971c-14.052,-18.724 -30.493,-47.435 25.561,-39.177c1.394,8.377 -5.664,19.968 -3.268,22.412c4.575,-2.683 5.689,0.353 5.052,6.283c1.564,0.339 4.925,0.992 4.369,-0.356c-2.293,-5.553 -1.179,-6.357 6.807,-4.91l-1.301,15.114c-2.613,2.027 -4.065,5.427 0.438,8.77c2.145,5.52 0.905,11.459 0.155,17.337l8.988,-0.315c1.732,-0.024 1.543,-3.413 1.103,-7.245c1.84,-2.671 3.275,-2.287 4.305,1.154c1.032,4.85 0.443,9.071 -0.664,13.091c1.173,4.127 4.372,5.141 7.124,2.886l-0.063,-4.075l2.954,0.248l0.186,-6.221c2.175,-0.877 4.548,-0.796 7.096,0.127c1.612,0.614 1.507,3.31 0.853,6.671c2.194,-1.006 4.398,-0.995 6.612,0.119c-0.488,7.532 -0.715,8.551 2.747,6.104c0.695,-0.491 2.777,0.19 3.524,0.271c2.215,0.24 -0.013,-3.927 0.62,-7.252l6.39,0.178l-0.35,-6.683c3.039,-0.459 1.274,0.112 3.98,0.432c0.49,1.682 0.667,3.693 0.372,6.202c4.039,1.249 4.751,-3.549 4.04,6.257c10.458,2.171 12.405,0.183 12.182,-5.355c0.861,-1.128 2.29,-1.32 4.549,-0.143c7.187,-5.664 14.81,-6.407 16.63,-28.957c1.555,6.539 5.472,5.93 9.906,3.756l2.6,16.176c2.335,-4.315 3.581,-1.728 8.379,-1.805l-0.484,-12.843c0.577,0.832 3.129,0.638 3.206,1.678c0.305,4.107 4.156,7.436 7.176,-2.616l7.807,0.065l15.52,17.983c0.072,0.848 3.402,-3.873 2.285,-9.201c-2.815,-13.431 2.168,-14.393 7.911,-15.088c9.227,-1.95 13.696,0.413 12.752,7.682c8.233,2.208 -0.53,7.214 0.23,11.796c0.684,4.127 3.489,8.859 1.068,10.816c-5.083,4.163 -3.178,9.49 2.961,16.92l8.97,0.734l0.814,7.295c4.609,-3.223 10.578,-2.88 15.359,-1.192c-4.972,7.264 -8.103,12.854 -0.136,11.625l1.522,7.868c7.735,3.197 3.588,-5.983 5.756,-13.08c7.254,11.313 11.331,13.235 8.743,-4.548c-0.684,-3.327 7.56,-3.553 14.269,-2.664c0.563,80.343 -13.675,136.453 -25.852,206.519c-5.957,16.891 -6.465,20.166 -13.907,1.69l-10.182,-17.019c-0.921,12.469 -2.829,7.296 -8.659,1.917c-3.1,11.876 -3.194,17.823 -1.873,31.071c-6.19,5.934 -9.975,9.362 -9.563,-4.424c-11.498,3.942 -16.603,0.603 -9.927,-11.793c-3.692,-4.071 -4.362,-10.836 -3.25,-19.191c-7.488,5.594 -11.171,17.17 -11.88,24.285c-6.599,2.823 -7.965,0.992 -11.327,-5.509l3.717,-14.133c-4.259,1.225 -1.689,-1.474 -3.551,-2.426c-3.014,-1.542 -9.207,-2.523 -11.791,-4.862c1.331,-1.303 -1.472,-5.754 0.14,-5.972c5.493,-0.742 9.807,-2.38 2.025,-13.161c-8.072,-1.748 -8.478,-1.045 -9.483,-10.715c4.222,-4.299 8.71,-6.494 13.834,-3.659l2.995,-20.983l-7.311,-0.297l-1.314,11.597c-4.161,-6.163 -5.571,-8.855 -10.952,-5.193c-3.373,-3.308 -4.31,-6.596 -0.961,-13.11c1.726,-3.356 -7.906,-7.472 -4.157,-10.187c4.738,-3.43 8.013,-15.985 3.689,-18.682l-1.619,5.106c-6.368,-0.947 -11.658,-6.152 -14.237,-11.935c-3.198,-0.953 -4.023,5.209 -4.453,12.555c-1.95,2.571 -4.958,0.445 -6.973,-0.427c-1.974,-7.312 0.587,-15.551 3.378,-23.836c-0.217,0.902 -6.297,-1.642 -6.361,1.502c-0.127,6.215 -0.235,18.061 -1.329,22.363c-0.798,3.142 -6.154,0.103 -6.366,0.879c-0.348,1.274 0.163,15.815 -6.924,13.103l-10.918,-10.186c-1.024,7.956 -2.386,15.037 -6.761,14.314c-10.502,5.268 -5.036,-6.939 -2.135,-14.586c0.971,-2.559 -4.095,-5.389 -3.534,-8.598c-4.659,6.242 -7.252,9.926 -7.484,18.676c-0.278,1.972 -4.736,-3.378 -5.05,-1.436c-10.086,62.391 -33.996,115.633 -45.825,113.433Z" style="fill:#4d9e03;"/><path d="M547.421,832.526c0,0 47.18,-7.854 65.961,-8.444c-5.227,-46.392 -10.272,-106.087 -14.046,-143.178c-3.694,-28.942 -3.783,-55.584 -1.065,-80.434c2.73,-47.362 4.451,-95.444 7.163,-136.766l5.904,-65.044c2.418,-33.271 -0.371,-63.055 -3.678,-90.791c-2.877,-11.209 0.921,-23.62 3.678,-75.933c10.794,-27.426 17.351,-48.763 23.424,-76.562c-2.544,-0.878 -5.499,-0.859 -9.679,1.839c-4.455,19.679 -12.937,42.935 -23.618,68.141c-0.591,22.444 -0.757,45.002 -5.549,66.307c-7.076,-50.692 -10.82,-101.462 -13.224,-143.648c-4.506,-1.736 -4.109,0.891 -7.733,1.213c-0.199,45.767 3.389,88.084 9.412,135.567c3.64,21.223 6.956,41.395 9.545,63.051c-0.322,22.868 0.147,39.677 -0.181,58.351c-6.228,38.278 -13.613,73.998 -22.215,104.262c-9.339,-37.359 -16.837,-72.731 -16.321,-95.101c-3.118,-62.459 -2.983,-143.218 -2.443,-136.082c-0.8,-19.777 -2,-45.646 -2.793,-56.757c0.928,-22.353 2.382,-41.132 2.332,-60.997c-11.01,-4.875 -8.823,1.385 -14.443,0.273c2.904,9.527 -0.175,11.617 -7.058,8.979c3.946,57.849 5.693,101.181 -3.093,107.02c-8.891,-16.263 -14.177,-37.669 -19.487,-93.556c-10.684,-4.672 -8.111,-0.555 -14.49,0.146c5.841,47.462 16.232,94.426 18.647,139.419c9.533,69.876 15.847,134.901 22.883,202.539c2.09,20.086 6.823,39.129 8.106,56.681c6.555,89.703 4.632,211.993 4.061,249.505Z" style="fill:#573d21;"/><path d="M4.138,25.478c-1.871,4.307 -1.047,16.617 0,29.592c8.649,36.081 25.842,60.204 45.898,80.32c18.849,31.597 28.001,60.265 36.838,87.87c6.685,30.105 11.774,79.171 24.309,95.99c9.136,12.258 12.401,30.043 14.9,35.026c33.466,66.71 34.727,97.447 40.388,114.415c-10.388,84.753 4.332,147.273 20.049,214.752c12.25,55.758 21.972,105.902 26.573,165.775c-5.038,28.178 -36.794,19.38 -49.401,25.969c-4.245,13.923 18.18,17.259 50.005,14.494c32.269,5.206 83.095,11.471 108.704,6.039c52.34,-3.782 83.423,-9.082 87.568,-16.306c-19.36,-3.626 -38.174,-8.402 -54.352,-18.721c-20.19,-23.741 -26.222,-47.009 -30.956,-72.223c-4.473,-23.826 -13.776,-47.744 -17.961,-74.529c1.544,-26.659 -8.807,-48.695 -14.314,-72.726c-9.874,-43.093 -12.567,-92.927 -14.619,-141.58c-1.084,-25.709 -1.988,-51.088 -3.679,-74.969c13.717,-20.344 18.148,-51.797 24.429,-77.311c4.109,-16.687 8.852,-39.36 13.598,-56.075c3.692,-13.001 5.782,-22.548 7.505,-27.8c8.905,-27.142 13.162,-36.099 17.879,-45.051c27.084,-26.634 45.928,-24.817 73.074,-51.575c13.706,-8.019 22.387,-9.249 28.451,-0.686c14.809,-12.859 26.298,-16.621 34.96,-19.001c-1.429,-4.39 -3.969,-6.283 -7.73,-5.436c-15.661,12.181 -36.177,13.3 -41.308,10.267c13.421,-9.437 22.717,-27.387 28.546,-48.054c-5.662,-6.095 -2.815,-3.967 -6.322,-2.796c-4.075,16.232 -16.961,30.574 -22.98,37.431l-3.569,-40.285c-1.79,-0.628 -3.3,0.023 -4.193,3.487c-0.357,15.434 -0.469,28.044 4.258,42.349c-11.163,10.885 -24.632,14.469 -36.603,27.965c-7.284,8.211 -14.627,5.401 -21.543,9.379c-15.485,8.907 -23.183,16.33 -29.299,19.755c2.748,-8.572 4.585,-18.339 4.119,-27.107c-0.372,-6.994 7.16,-25.748 5.405,-46.136c-0.42,-4.877 -0.873,-10.377 -0.105,-13.586c3.263,-13.625 5.015,-30.711 5.979,-42.068c12.541,-26.515 15.734,-40.081 2.334,-35.494c-3.32,9.392 -6.892,18.041 -10.631,26.2l-6.05,-37.688c-2.419,-1.278 -4.752,-1.302 -6.715,4.04c-1.343,10.944 0.903,20.255 6.456,28.063c-1.043,20.058 -0.52,39.341 -5.192,56.723c-3.464,12.887 -4.71,25.851 -4.904,38.856c-0.172,11.533 -2.502,22.695 -3.291,34.074c-0.348,5.015 -3.647,11.405 -3.678,16.553c-0.109,18.05 -16.762,58.826 -37.692,129.324c-2.716,9.151 -11.483,19.118 -18.474,26.158l4.125,-215.771l2.283,-143.229c-15.905,-0.968 -43.209,0.405 -79.373,-0.512c-8.022,84.228 -21.707,206.855 -18.83,329.316c-7.03,0.834 -18.389,-10.12 -24.085,-27.672c-6.499,-20.027 -36.882,-76.143 -47.781,-131.641c-0.632,-1.492 -4.348,-26.648 -1.235,-47.993c2.943,-20.186 9.906,-48.254 9.384,-92.688c-3.857,-1.51 -4.125,-0.109 -5.312,5.937c-4.011,6.586 -5.258,14.806 -5.937,21.676c-8.358,-11.001 -16.789,-27.823 -23.254,-52.387l-8.12,0.356c6.893,16.823 12.293,31.121 15.365,41.488l9.747,13.185l4.072,12.471l-2.23,24.728c-2.356,7.061 -4.512,17.532 -7.578,26.387c-5.279,-25.305 -17.507,-48.864 -24.851,-69.093c-7.459,-21.691 -9.416,-34.471 -8.422,-37.56c-4.715,-0.169 -3.813,6.221 -7.459,7.967c1.234,16.11 7.303,38.96 13.556,62.065c3.056,7.869 4.269,22.529 3.543,31.301c-16.361,0.513 -38.868,-45.074 -47.351,-73.067c-3.452,-11.388 -7.194,-18.822 -6.921,-18.927Z" style="fill:#42241d;"/><path d="M767.192,3.948c-5.585,70.23 -6.288,134.632 -23.191,218.376c-26.132,-23.076 -44.616,-55.275 -69.571,-83.099c-7.647,-13.551 -11.791,-28.141 -10.145,-44.448c5.51,-13.957 9.863,-26.783 13.257,-38.674c0.117,-19.842 0.797,-38.469 0.58,-53.084c0.274,-7.705 -4.257,-5.349 -8.238,0.198l-4.196,19.902c-4.814,-7.957 -6.118,-17.12 -5.838,-21.859c-6.753,-4.062 -12.777,-1.531 -10.877,2.415c2.352,6.696 6.744,16.819 11.93,26.362c0.382,7.461 0.96,13.583 3.111,21.223c-9.004,8.111 -13.373,24.844 -16.368,41.619c-3,5.306 -13.152,0.024 -14.415,-12.915c-0.481,-4.931 -8.104,-25.055 -10.318,-30.242c-7.656,-17.935 -12.868,-17.504 -26.75,-27.415c-12.388,-7.397 -18.772,-16.953 -18.049,-22.299c-21.878,0.541 -37.773,-0.338 -46.431,-0.508c-11.068,-1.22 -6.379,9.127 0.189,14.629c5.429,6.408 28.884,0.064 37.873,9.237c15.903,15.254 31.702,32.052 43.328,55.468c4.35,29.019 15.625,48.394 27.055,64.33c33.658,63.863 67.709,122.417 106.772,164.674c-5.571,87.147 -10.876,156.994 -12.689,224.91c-0.033,53.44 -9.231,104.079 -15.282,151c-2.172,16.845 -0.151,31.106 -2.466,47.797c-9.106,29.099 -25.541,44.751 -35.874,54.151c-8.803,8.007 -7.013,18.697 -13.889,27.015c-25.573,19.894 -53.318,29.725 -78.234,36.841l0.791,2.691c28.104,-0.705 60.4,-7.61 74.053,-6.589c35.933,-3.181 60.522,6.031 85.523,-6.854c13.789,17.153 26.176,25.867 36.068,26.755c15.862,5.123 36.29,2.034 57.176,-2.598c21.113,15.188 34.358,24.131 49.495,38.424c13.394,4.702 32.731,6.365 31.292,0.518c-18.065,-19.804 -22.717,-24.805 -31.884,-20.215c-10.382,-10.257 -14.009,-22.137 -15.266,-34.829c21.208,-10.324 36.8,-10.348 44.923,0.183l26.048,28.12c6.321,12.31 8.442,16.397 15.4,15.703c-1.887,-12.209 -5.379,-26.369 -11.429,-43.64c6.803,5.293 13.082,7.9 18.968,8.489c11.497,1.533 15.045,7.333 18.875,15.476c7.337,-0.851 12.955,-2.005 14.461,-3.881c-9.686,-10.663 -16.256,-16.675 -19.751,-22.265c-9.439,-3.869 -18.621,-8.341 -25.663,-17.835c-8.446,-15.979 -18.252,-29.914 -23.1,-38.642c-11.981,-0.464 -21.248,3.085 -28.047,10.287c-9.198,-1.939 -17.391,-9.879 -18.866,-18.293c-0.505,-3.575 -0.653,-7.405 -1.44,-11.313c-8.003,-39.704 -9.173,-102.909 -7.765,-163.338c1.661,-71.293 -0.037,-137.205 0.366,-154.586c14.939,-40.341 28.204,-79.089 38.199,-101.033c10.193,-47.123 18.233,-84.231 28.901,-127.187l32.544,-71.573c19.346,-46.507 30.883,-96.604 33.155,-150.962c2.446,-0.712 -11.788,-4.938 -11.966,-1.117c-1.848,14.697 0.892,33.345 -1.732,45.806c-8.876,42.15 -20.238,73.226 -28.796,94.889c-6.442,16.306 -17.03,27.946 -27.152,38.274c-16.512,52.384 -52.785,169.832 -60.502,173.939c-2.83,-53.609 -6.386,-108.154 1.041,-162.723c6.035,-44.342 10.69,-86.355 11.24,-128.683c0.243,-18.69 3.305,-42.348 5.064,-60.94l-131.696,-0.027" style="fill:#533d22;"/><path d="M-0.363,-0.101c-7.548,21.054 5.779,35.179 6.812,42.735c3.455,-0.748 12.59,-4.758 16.071,-10.104l4.381,-9.778c3.254,-0.655 5.504,0.389 4.758,6.502c0,0 14.748,5.392 12.845,6.026c-1.903,0.634 -0.372,-9.119 -0.372,-9.119c5.972,2.343 7.791,-5.659 10.68,-12.344c0.476,6.063 21.252,12.014 10.949,-5.848c4.422,-3.725 7.692,2.345 5.898,5.915c-0.878,1.747 2.958,16.83 12.814,30.556c8.572,16.826 9.808,16.981 11.957,-1.846c2.475,-3.273 4.448,-7.691 5.468,-14.285c-0.347,7.064 1.669,22.215 4.929,30.124c-0.258,6.193 3.155,8.296 7.929,8.881c5.809,-0.622 11.08,-7.272 12.008,-13.309c-0.021,5.673 -0.045,10.849 2.582,13.467c-7.215,0.316 -5.618,4.052 -8.881,9.833c-2.256,3.998 2.603,17.848 5.075,15.858c-3.758,7.401 -4.612,12.773 -3.33,16.651c2.04,6.677 5.026,7.543 9.312,8.418c2.38,-4.313 2.674,-11.204 8.145,-10.746c-1.702,10.993 3.58,20.705 7.853,15.77c-0.064,-3.373 3.466,-13.946 5.823,-8.944c2.258,4.791 5.14,-12.249 5.817,2.956c5.557,3.434 6.537,0.478 5.705,1.993c-1.038,1.888 0.738,4.81 -0.789,8.632l10.625,-0.159c0.165,-8.751 0.4,-18.08 7.152,-21.986c6.79,-3.928 9.96,-11.39 12.22,-19.379c0.928,-13.579 -2.913,-24.247 -7.364,-28.761c4.835,-4.193 3.049,-9.419 0.082,-18.402c-2.397,-9.017 1.3,-12.256 12.649,-11.418c-0.878,-7.545 0.648,-12.515 3.045,-16.552c1.395,6.571 3.068,9.12 6.438,10.675c6.256,-4.008 5.866,-13.733 6.206,-18.296l42.712,0.034c0.174,3.104 -1.454,9.745 1.477,9.018c2.73,-0.677 4.647,-0.287 4.746,1.418c0.212,3.662 -0.811,15.245 2.672,15.069c6.651,-0.336 8,2.707 6.063,11.248c-2.253,1.304 -3.823,3.036 -5.107,4.948l0.635,8.087l7.77,-2.061l-2.378,7.77c0.03,2.34 1.554,2.916 4.345,1.999l-0.064,7.516c-0.033,4.05 2.826,2.999 5.709,1.903l-0.031,-7.529c2.032,2.928 4.115,2.77 6.216,1.503c0.986,-1.23 1.85,-3.355 2.582,-6.464c0.668,4.469 0.386,9.249 -0.52,14.235c2.914,0.715 7.867,0.348 10.32,-0.78l4.269,-10.004c1.753,-1.386 2.517,-0.424 1.903,3.806l-2.22,6.299c3.739,0.937 5.201,0.963 7.777,-1.82l-0.089,-9.046c2.582,0.106 5.544,-0.384 4.115,-3.927c-0.238,-3.758 -0.501,-7.571 0.915,-7.789l3.458,-10.2c5.125,4.456 2.939,1.598 7.212,-10.676c1.87,-1.452 1.404,-2.296 3.406,-1.548l7.549,39.887l11.113,-29.776c7.02,-2.083 8.598,0.438 8.374,9.744c3.112,-1.125 5.765,-3.307 8.176,-6.045c-1.932,4.44 -2.325,8.539 -0.793,12.21l6.026,-1.268c-2.117,4.678 -3.925,9.102 -3.729,11.881l3.412,5.404c-2.599,4.787 -2.151,8.431 -1.49,12.078c3.475,-1.185 4.873,0.024 3.235,4.732c-1.259,0.464 -2.623,2.062 -4.282,6.819c0.835,2.311 2.73,3.1 4.459,3.584l-1.141,5.494c2.63,4.507 4.494,1.243 4.721,-3.255c2.777,6.053 5.393,7.266 7.707,-0.59l2.277,3.076c5.365,2.214 7.473,0.991 10.949,-0.647l0.412,-19.873c4.614,-0.085 11.829,-4.545 16.112,-8.691c-3.047,4.588 -6.06,9.443 -7.073,14.717c-0.644,3.809 0.348,4.375 3.204,4.821l5.677,-4.504c-3.717,4.499 -3.353,8.697 -3.552,12.877c4.065,-1.024 0.866,1.774 5.075,0.19c-2.237,4.082 4.795,3.35 4.503,3.902c-2.706,5.11 -2.612,9.755 1.11,13.796c2.624,1.026 5.633,-0.061 8.722,-1.586c-1.423,-3.794 -2.48,-8.186 0.025,-9.03c4.385,-1.478 5.522,4.505 4.257,-6.035c2.543,-0.629 7.418,4.413 9.003,3.082c2.706,-2.273 4.771,3.53 6.475,-0.323c2.872,13.663 -0.546,4.553 -1.205,12.782c2.495,1.929 5.108,1.639 7.739,1.031c-1.615,3.568 -2.221,6.892 -1.237,9.832l4.345,-2.283l-0.159,5.265c1.49,1.699 3.546,3.335 5.804,0.507l1.11,-9.356c2.129,-0.28 2.617,3.669 2.062,10.307c-3.24,6.642 -8.692,9.283 -6.078,12.466c0.937,1.14 6.018,1.658 8.252,3.422c4.27,0.285 6.385,-2.371 7.592,-6.988c5.645,1.867 9.47,2.204 10.726,-3.962l-0.828,-11.122c2.801,3.303 5.63,5.736 7.966,6.062c5.572,0.656 8.757,-0.972 9.32,-5.111c0.025,-4.4 -0.292,-7.784 -0.793,-10.625c4.971,-1.917 8.157,-5.457 10.704,-9.876l-4.494,-8.086c-1.033,-2.365 -0.355,-3.395 2.663,-2.596c1.932,-0.367 3.106,-1.569 2.471,-4.765l-0.085,-5.759c-2.262,0.588 -4.198,0.461 -5.55,-0.952c-1.477,-1.099 -2.19,-2.799 -0.951,-6.026c-2.083,1.075 -3.736,1.109 -4.917,0l1.428,-8.563c2.098,2.34 4.205,3.941 6.343,2.696c4.344,-4.568 4.457,-8.44 3.965,-12.211c-1.829,-1.532 -2.045,-4.18 -1.586,-7.295l1.586,-13.004c-2.449,-6.311 -4.547,-4.941 -6.038,0.972c-3.736,1.301 -4.354,3.667 -4.587,6.164c-0.195,-6.242 -2.352,-10.01 -2.38,-13.051c-0.032,-3.449 -3.063,-3.779 -5.9,-4.08l-1.239,-5.231l-6.146,-1.348c-1.056,-11.536 -1.096,-21.98 5.024,-22.225c-166.27,-1.293 -498.825,-0.387 -498.825,-0.387Z" style="fill:#2d7836;"/></svg>