<?xml version="1.0" encoding="UTF-8" standalone="no"?><!DOCTYPE svg PUBLIC "-//W3C//DTD SVG 1.1//EN" "http://www.w3.org/Graphics/SVG/1.1/DTD/svg11.dtd"><svg width="100%" height="100%" viewBox="0 0 100 100" version="1.1" xmlns="http://www.w3.org/2000/svg" xmlns:xlink="http://www.w3.org/1999/xlink" xml:space="preserve" xmlns:serif="http://www.serif.com/" style="fill-rule:evenodd;clip-rule:evenodd;stroke-linecap:round;stroke-linejoin:round;stroke-miterlimit:1.5;"><path d="M2,25.313c0.361,-18.396 14.068,-31.489 32.928,-17.34c18.706,19.641 38.172,38.478 59.845,54.978c-8.079,-6.823 -38.843,11.86 -35.922,29.027l-56.851,-66.665Z" style="fill:#8b5f3c;stroke:#120e0f;stroke-width:1px;"/><path d="M36.838,11.942l1.791,-6.03c0.838,2.123 8.646,5.234 10.262,5.306c-0.591,1.531 -1.359,2.796 -1.695,4.033c-0.326,1.199 -0.441,2.361 -1.19,3.319c-0.257,0.329 -1.118,1.345 -1.311,1.858" style="fill:#8b5f3c;"/><path d="M38.56,5.588c-0.166,0.203 -0.282,0.509 -0.332,0.73c-0.025,0.112 -0.312,0.345 -0.298,0.458c0.014,0.122 -0.163,0.298 -0.149,0.413c0.043,0.358 -0.137,0.702 -0.096,1.041c0.007,0.059 -0.093,0.149 -0.087,0.198c0.035,0.285 -0.08,0.622 -0.047,0.889c0.037,0.313 -0.334,0.716 -0.298,1.012c0.01,0.083 -0.151,0.218 -0.14,0.309c0.088,0.732 -0.385,1.388 -0.302,2.078c0.026,0.219 -0.299,0.458 -0.274,0.659c0.046,0.388 -0.038,0.789 0.005,1.148c0.061,0.511 -0.375,1.105 -0.312,1.629c0.007,0.06 -0.181,0.152 -0.173,0.212c0.016,0.133 -0.207,0.301 -0.193,0.42c0.014,0.111 -0.35,0.383 -0.409,0.455c-0.32,0.392 -0.887,0.774 -1.338,0.994c-0.372,0.181 -0.722,0.71 -1.121,0.774c-0.098,0.016 -0.191,0.236 -0.28,0.25c-0.168,0.027 -0.282,0.271 -0.471,0.301c-0.41,0.066 -0.866,0.451 -1.228,0.627c-0.246,0.12 -0.556,0.233 -0.785,0.269c-0.058,0.01 -0.137,0.145 -0.202,0.156c-0.208,0.033 -0.429,0.232 -0.63,0.265c-0.051,0.008 0.135,-0.227 0.235,-0.243" style="fill:none;stroke:#1d1b1e;stroke-width:0.5px;"/><path d="M38.369,6.068c-0.653,0.8 -0.415,2.382 -0.328,3.106c0.023,0.194 -0.267,0.471 -0.246,0.641c0.167,1.393 -1.095,3.453 -0.927,4.854c0.047,0.388 -0.544,0.85 -0.493,1.28c0.035,0.289 -1.145,1.404 -1.362,1.67c-1.056,1.293 -2.382,2.534 -3.608,2.73c-0.106,0.017 -0.188,0.23 -0.294,0.247c-0.117,0.019 -1.687,0.377 -1.399,0.024" style="fill:none;stroke:#1d1b1e;stroke-width:0.5px;"/><path d="M58.509,89.529c10.723,-32.306 35.153,-30.984 38.385,-23.956c2.218,4.823 0.761,9.048 -1.394,13.974c-13.7,16.118 -24.607,19.756 -31.021,18.081c-3.087,-1.47 -6.93,-6.602 -5.97,-8.099Z" style="fill:#c4996c;stroke:#292526;stroke-width:1px;"/><path d="M92.199,67.269c-0.32,-0.221 -0.701,-0.368 -0.988,-0.322c-0.113,0.018 -0.263,-0.278 -0.376,-0.26c-0.381,0.061 -0.814,-0.311 -1.195,-0.25c-0.235,0.038 -0.487,-0.327 -0.734,-0.363c-1.013,-0.146 -1.881,-0.459 -2.755,-0.319c-1.086,0.174 -2.227,0.476 -3.414,0.666c-0.363,0.058 -0.616,0.379 -0.94,0.431c-0.724,0.116 -1.441,0.471 -2.088,0.575c-0.282,0.045 -0.507,0.562 -0.789,0.607c-0.156,0.025 -0.259,0.482 -0.414,0.507c-0.164,0.026 -0.436,0.174 -0.602,0.376c-0.06,0.074 -0.29,0.447 -0.376,0.461c-0.423,0.068 -0.78,0.686 -1.203,0.753c-0.376,0.06 -0.661,1.147 -1.062,1.212c-0.24,0.038 -0.418,0.587 -0.658,0.626c-0.268,0.042 -0.543,0.527 -0.837,0.574c-0.085,0.014 -0.141,0.263 -0.226,0.276c-0.268,0.043 -0.54,0.688 -0.817,0.732c-0.352,0.056 -1.103,0.901 -1.401,1.266c-0.476,0.582 -0.885,0.993 -1.363,1.579c-0.078,0.096 -0.377,0.581 -0.489,0.599c-0.395,0.064 -0.714,0.755 -1.109,0.819c-0.293,0.047 -0.555,0.569 -0.874,0.62c-0.593,0.095 -2.035,1.545 -2.219,2.358c-0.051,0.228 -0.333,0.453 -0.31,0.65c0.031,0.258 -0.569,0.646 -0.535,0.927c0.014,0.118 -0.353,0.297 -0.339,0.415c0.038,0.317 -0.514,0.745 -0.479,1.037c0.053,0.443 -0.011,1.254 -0.102,1.659c-0.111,0.488 -0.672,1.229 -0.62,1.661c0.019,0.157 -0.301,0.368 -0.282,0.526c0.053,0.437 0.106,0.885 0.161,1.336c0.021,0.175 0.381,0.509 0.47,0.685c0.06,0.117 0.455,0.199 0.471,0.325c0.051,0.428 0.489,0.845 0.536,1.236c0.039,0.319 0.071,0.587 0.114,0.943c0.008,0.072 0.356,0.246 0.423,0.293c0.236,0.163 0.709,0.706 0.875,0.821c0.473,0.327 1.021,0.777 1.562,1.151c0.09,0.062 0.461,0.407 0.564,0.39c0.664,-0.106 1.578,-0.653 2.069,-0.731c0.489,-0.079 0.907,-0.106 1.317,-0.171c0.171,-0.028 0.37,0.141 0.573,0.108c0.709,-0.113 1.404,-0.465 2.088,-0.574c0.25,-0.04 0.438,-0.391 0.724,-0.437c0.73,-0.117 1.381,-0.821 2.172,-0.948c0.457,-0.073 0.909,-0.706 1.373,-0.781c0.251,-0.04 0.495,-0.56 0.705,-0.593c0.368,-0.059 0.542,-0.487 0.912,-0.667c0.995,-0.485 1.425,-1.416 2.444,-1.913c0.349,-0.17 0.685,-1.031 1.034,-1.086c0.356,-0.057 0.895,-0.827 1.156,-1.147c0.461,-0.564 2.093,-1.966 2.011,-2.645c-0.011,-0.091 0.274,-0.23 0.263,-0.322c-0.02,-0.17 0.171,-0.374 0.151,-0.545c-0.012,-0.095 0.225,-0.274 0.216,-0.355c-0.046,-0.379 0.543,-0.861 0.498,-1.241c-0.013,-0.105 0.313,-0.264 0.3,-0.368c-0.016,-0.132 0.207,-0.343 0.329,-0.493c0.229,-0.281 0.793,-1.409 1.203,-1.475c0.24,-0.038 0.447,-0.351 0.687,-0.39c0.84,-0.134 1.601,-0.537 2.463,-0.675c0.1,-0.016 0.242,-0.319 0.348,-0.336c0.487,-0.078 1.373,-1.411 1.758,-1.883c0.457,-0.56 0.807,-1.537 0.732,-2.16c-0.014,-0.118 0.215,-0.365 0.198,-0.512c-0.04,-0.331 0.117,-0.818 0.074,-1.173c-0.031,-0.262 0.191,-0.565 0.16,-0.827c-0.041,-0.335 -0.298,-0.679 -0.33,-0.948c-0.036,-0.302 0.129,-0.848 -0.123,-1.022" style="fill:none;stroke:#1d1b1e;stroke-width:0.5px;"/><path d="M93.216,70.711c-0.699,0.857 -0.346,2.146 -0.262,2.845c0.044,0.36 -0.575,0.864 -0.667,1.268c-0.036,0.161 -0.388,1.183 -0.714,1.236c-0.812,0.13 -1.552,0.849 -2.426,0.989c-0.332,0.053 -0.551,0.449 -0.846,0.496c-0.31,0.049 -0.564,0.571 -0.874,0.62c-0.197,0.032 -0.399,0.505 -0.583,0.534c-0.527,0.085 -0.971,0.636 -1.467,0.716c-0.398,0.063 -0.718,0.595 -1.128,0.661c-0.262,0.042 -0.485,0.718 -0.771,0.764c-0.24,0.038 -0.428,0.509 -0.667,0.547c-0.24,0.039 -0.419,0.588 -0.658,0.626c-0.613,0.098 -1.116,1.06 -1.674,1.149c-0.111,0.018 -0.411,0.504 -0.489,0.599c-0.423,0.519 -1.395,1.362 -1.532,1.968c-0.062,0.278 -0.759,0.859 -0.723,1.157c0.035,0.289 -0.556,0.754 -0.517,1.084c0.083,0.69 -1.423,2.31 -2.124,2.422c-0.141,0.023 -0.254,0.281 -0.395,0.304c-0.282,0.045 -0.517,0.483 -0.799,0.528c-0.922,0.148 -1.876,0.3 -2.878,0.461c-0.88,0.141 -1.742,-0.122 -2.586,0.014c-0.223,0.035 -1.377,-0.429 -1.562,-0.792c-0.155,-0.305 -0.62,-0.855 -0.659,-1.176c-0.026,-0.222 -0.519,-0.37 -0.545,-0.593c-0.011,-0.088 -0.435,-0.301 -0.518,-0.358c-0.154,-0.106 -0.349,-0.396 -0.367,-0.542c-0.1,-0.831 0.564,-1.653 0.77,-2.566c0.068,-0.3 0.725,-0.788 0.686,-1.111c-0.02,-0.17 0.34,-0.401 0.319,-0.572c-0.041,-0.346 0.41,-0.848 0.498,-1.241c0.024,-0.105 0.313,-0.268 0.301,-0.368c-0.033,-0.275 0.399,-0.625 0.366,-0.9c-0.136,-1.136 1.433,-2.232 2.388,-2.385c0.438,-0.07 0.883,-0.662 1.335,-0.734c0.675,-0.108 1.138,-1.304 1.814,-1.412c0.078,-0.012 0.285,-0.348 0.339,-0.414c0.326,-0.4 0.651,-0.799 0.977,-1.198c0.911,-1.117 1.35,-2.466 2.284,-3.61c0.416,-0.51 0.97,-1.276 1.476,-1.357c0.371,-0.06 0.622,-0.34 1.072,-0.412c0.783,-0.126 1.779,-0.325 2.576,-0.453c0.437,-0.07 0.911,0.135 1.345,0.065c0.906,-0.145 1.925,0.012 2.831,-0.133c0.851,-0.136 1.708,-0.073 2.52,-0.203c0.093,-0.015 0.643,0.012 0.743,0.081c0.137,0.094 0.589,0.263 0.452,0.168" style="fill:none;stroke:#1d1b1e;stroke-width:0.5px;"/><path d="M88.017,73.025c0.06,0.498 -1.139,2.225 -1.833,2.336c-0.339,0.054 -0.649,0.344 -0.987,0.398c-1.243,0.199 -2.158,0.66 -3.253,2.003c-0.966,1.182 -1.542,3.885 -3.393,4.788c-0.448,0.218 -0.634,0.983 -1.081,1.054c-0.141,0.023 -0.244,0.36 -0.386,0.382c-0.123,0.02 -0.299,0.368 -0.423,0.428c-0.5,0.245 -0.99,1.2 -1.485,1.279c-0.094,0.016 -0.347,0.427 -0.413,0.507c-0.325,0.398 -0.751,0.83 -1.1,1.258c-0.06,0.073 -0.29,0.447 -0.376,0.46c-0.568,0.091 -1.23,0.544 -1.843,0.456c-0.342,-0.05 -0.744,-0.322 -1.025,-0.277c-0.156,0.025 -0.353,-0.304 -0.508,-0.279c-0.091,0.015 -0.974,-0.202 -1.007,-0.479c-0.033,-0.276 -0.278,-0.517 -0.311,-0.792c-0.044,-0.367 0.294,-0.789 0.254,-1.122c-0.011,-0.091 0.274,-0.23 0.263,-0.322c-0.032,-0.262 0.36,-0.592 0.328,-0.854c-0.014,-0.117 0.353,-0.296 0.339,-0.414c-0.035,-0.288 0.692,-0.698 0.658,-0.987c-0.036,-0.299 0.583,-0.657 0.657,-0.986c0.071,-0.314 0.482,-0.681 0.705,-0.954c0.564,-0.691 1.095,-1.431 1.608,-2.059c0.538,-0.661 1.077,-1.321 1.616,-1.981c0.09,-0.11 0.435,-0.671 0.564,-0.691c0.22,-0.035 0.451,-0.273 0.696,-0.312c0.504,-0.081 1.026,-0.204 1.561,-0.29c0.385,-0.062 0.73,-0.557 1.091,-0.615c0.663,-0.106 1.242,-0.479 1.871,-0.58c0.685,-0.11 1.153,-1.266 1.861,-1.379c0.326,-0.053 0.687,-0.471 1.016,-0.523c0.708,-0.114 1.403,-0.265 2.069,-0.372c0.239,-0.038 0.493,0.041 0.733,0.003c0.116,-0.019 0.348,0.024 0.348,0.024c0,0 -0.221,0.182 -0.31,0.29" style="fill:none;stroke:#1d1b1e;stroke-width:0.5px;"/><path d="M79.245,78.274c0.211,-0.259 0.429,-0.732 0.404,-0.946c-0.011,-0.091 0.274,-0.23 0.263,-0.322c-0.002,-0.012 -0.175,-0.132 -0.188,-0.13c-0.41,0.065 -0.814,0.17 -1.223,0.236c-0.099,0.015 -0.164,0.306 -0.263,0.322c-0.24,0.038 -0.437,0.43 -0.677,0.469c-0.381,0.061 -0.748,0.24 -1.128,0.301c-0.184,0.029 -0.334,0.333 -0.518,0.363c-0.145,0.023 -0.537,0.658 -0.639,0.783c-0.553,0.678 -1.21,1.393 -1.814,2.133c-0.706,0.865 -1.854,1.796 -1.738,2.761c0.02,0.169 0.199,0.008 0.216,0.005c0.198,-0.031 0.414,0.094 0.612,0.063c0.166,-0.027 0.32,-0.252 0.441,-0.271c0.271,-0.044 0.673,-0.374 0.912,-0.667c0.072,-0.088 0.348,-0.536 0.451,-0.553c0.211,-0.034 0.554,-0.588 0.724,-0.797c0.508,-0.621 1.096,-0.981 1.579,-1.574c0.216,-0.264 1.427,-1.536 1.175,-1.71" style="fill:none;stroke:#1d1b1e;stroke-width:0.5px;"/><path d="M95.244,64.259c-0.547,0.67 -1.609,2.422 -2.208,3.157c-0.159,0.194 -0.576,0.589 -0.555,0.769c0.029,0.236 -0.451,0.553 -0.422,0.789c0.011,0.091 -0.275,0.23 -0.264,0.322c0.031,0.252 -0.352,0.479 -0.422,0.789c-0.042,0.186 -0.376,0.46 -0.376,0.46c0,0 0.088,-0.214 0.188,-0.23c0.198,-0.032 0.433,-0.39 0.639,-0.423c0.47,-0.075 0.87,-0.7 1.373,-0.78c0.155,-0.025 0.277,-0.325 0.432,-0.35c0.48,-0.077 0.799,-1.489 1.278,-1.566c0.427,-0.068 0.738,-0.679 1.204,-0.753c0.07,-0.012 0.117,-0.219 0.188,-0.231c0.024,-0.004 0.296,-0.043 0.282,-0.165c-0.002,-0.017 -0.305,0.005 -0.348,-0.024" style="fill:none;stroke:#1d1b1e;stroke-width:0.5px;"/><path d="M56.547,85.225c-0.068,-0.047 -0.203,-0.337 -0.212,-0.417c-0.051,-0.425 -1.372,-0.648 -1.423,-1.073c-0.016,-0.13 -0.643,-0.444 -0.765,-0.529c-0.628,-0.434 -1.394,-0.868 -1.681,-1.432c-0.204,-0.401 -0.986,-0.573 -1.036,-0.986c-0.013,-0.115 -0.397,-0.17 -0.411,-0.284c-0.041,-0.344 -0.669,-0.633 -0.706,-0.939c-0.016,-0.131 -0.455,-0.194 -0.47,-0.325c-0.057,-0.475 -1.014,-0.805 -1.071,-1.28c-0.073,-0.608 -1.884,-0.873 -1.952,-1.44c-0.14,-1.161 -1.523,-1.902 -1.671,-3.136c-0.029,-0.239 -0.596,-0.471 -0.624,-0.701c-0.094,-0.786 -1.458,-1.369 -1.552,-2.155c-0.021,-0.173 -0.565,-0.285 -0.647,-0.447c-0.205,-0.402 -1.363,-1.022 -1.412,-1.426c-0.051,-0.427 -0.642,-0.887 -0.859,-1.314c-0.09,-0.178 -0.343,-0.167 -0.364,-0.342c-0.029,-0.242 -0.75,-0.408 -0.776,-0.626c-0.044,-0.361 -0.722,-0.619 -0.765,-0.979c-0.029,-0.242 -0.494,-0.519 -0.53,-0.817c-0.015,-0.131 -0.454,-0.194 -0.47,-0.325c-0.036,-0.295 -0.822,-0.561 -0.859,-0.864c-0.023,-0.196 -0.47,-0.325 -0.494,-0.521c-0.067,-0.561 -1.052,-1.02 -1.317,-1.541c-0.348,-0.684 -1.026,-0.969 -1.388,-1.68c-0.121,-0.237 -0.571,-0.267 -0.6,-0.505c-0.025,-0.208 -0.694,-0.389 -0.717,-0.586c-0.055,-0.454 -0.801,-0.83 -0.859,-1.314c-0.01,-0.082 -0.285,-0.121 -0.294,-0.203c-0.054,-0.446 -0.492,-1.042 -0.789,-1.626c-0.171,-0.336 -0.611,-0.601 -0.647,-0.898c-0.023,-0.19 -0.576,-0.457 -0.67,-0.643c-0.483,-0.949 -1.142,-1.421 -1.565,-2.253c-0.183,-0.36 -0.718,-0.512 -0.918,-0.904c-0.187,-0.37 -0.653,-0.5 -0.694,-0.84c-0.012,-0.102 -0.411,-0.285 -0.458,-0.227" style="fill:none;stroke:#1d1b1e;stroke-width:0.5px;"/><path d="M59.344,84.277c-0.012,-0.105 -0.401,-0.637 -0.611,-0.603c-0.571,0.091 -1.936,-0.957 -2.235,-1.545c-0.067,-0.132 -0.512,-0.224 -0.529,-0.366c-0.056,-0.462 -1.074,-0.912 -1.294,-1.344c-0.105,-0.207 -0.63,-0.306 -0.659,-0.546c-0.08,-0.667 -1.226,-1.062 -1.552,-1.703c-0.675,-1.326 -2.399,-2.46 -2.553,-3.746c-0.011,-0.09 -0.723,-0.986 -0.553,-1.013c0.074,-0.012 0.346,0.239 0.411,0.284" style="fill:none;stroke:#1d1b1e;stroke-width:0.5px;"/><path d="M59.189,79.846c-0.053,0.066 -0.585,-0.383 -0.6,-0.505c-0.063,-0.527 -0.968,-1.506 -1.318,-1.991c-0.567,-0.788 -1.809,-2.047 -1.917,-2.947c-0.044,-0.359 -0.483,-0.546 -0.694,-0.84c-0.343,-0.475 -0.758,-1.04 -1.059,-1.633c-0.066,-0.129 -0.346,-0.154 -0.412,-0.284c-0.277,-0.545 -0.738,-1.002 -1.059,-1.633c-0.148,-0.291 -0.468,-0.303 -0.506,-0.62c-0.053,-0.446 -0.95,-0.73 -0.999,-1.141c-0.036,-0.298 -0.983,-0.658 -1.141,-0.969c-0.097,-0.19 -0.74,-0.323 -0.765,-0.528c-0.088,-0.731 -1.619,-1.357 -1.705,-2.08c-0.012,-0.098 -0.341,-0.145 -0.353,-0.244c-0.064,-0.529 -1.302,-0.958 -1.365,-1.483c-0.034,-0.289 -0.763,-0.451 -0.894,-0.708c-0.462,-0.91 -2.102,-1.286 -2.587,-2.239c-0.206,-0.404 -1.198,-0.828 -1.588,-1.097c-0.074,-0.052 -0.461,-0.246 -0.47,-0.325c-0.076,-0.628 -1.751,-1.481 -2.446,-1.962c-1.689,-1.167 -3.579,-2.462 -4.293,-3.868c-0.208,-0.409 -1.002,-0.706 -1.059,-1.182c-0.014,-0.12 -0.406,-0.238 -0.423,-0.382c-0.041,-0.341 -0.787,-0.873 -0.953,-1.199c-0.06,-0.118 -0.456,-0.2 -0.471,-0.326c-0.057,-0.478 -0.916,-0.896 -0.976,-1.395c-0.02,-0.165 -0.533,-0.398 -0.553,-0.562c-0.054,-0.448 -0.781,-0.667 -0.835,-1.118c-0.032,-0.266 -0.609,-0.578 -0.647,-0.898c-0.04,-0.331 -0.471,-0.475 -0.636,-0.799c-0.368,-0.725 -1.251,-1.262 -1.646,-2.039c-0.123,-0.241 -0.643,-0.288 -0.765,-0.529c-0.27,-0.53 -0.853,-0.703 -1.117,-1.222c-0.211,-0.415 -0.974,-0.472 -1.024,-0.888c-0.025,-0.212 -0.738,-0.315 -0.764,-0.528c-0.027,-0.222 -0.428,-0.242 -0.541,-0.464c-0.27,-0.53 -1.017,-0.725 -1.282,-1.247c-0.112,-0.219 -0.854,-0.373 -0.882,-0.609c-0.05,-0.411 -1.164,-0.713 -1.212,-1.108c-0.054,-0.453 -0.849,-0.784 -0.917,-1.355c-0.029,-0.237 -0.549,-0.524 -0.577,-0.758c-0.079,-0.657 -0.906,-1.332 -1.27,-2.05c-0.266,-0.521 -1.021,-0.807 -1.294,-1.344c-0.052,-0.103 -0.399,-0.175 -0.412,-0.285c-0.079,-0.661 -1.326,-1.164 -1.412,-1.876c-0.025,-0.213 -0.527,-0.35 -0.552,-0.562c-0.068,-0.561 -0.859,-1.09 -1.177,-1.714c-0.106,-0.209 -0.601,-0.515 -0.623,-0.701c-0.064,-0.533 -0.979,-0.964 -1.047,-1.535c-0.012,-0.098 -0.341,-0.145 -0.353,-0.244c-0.051,-0.424 -0.655,-0.612 -0.883,-1.06c-0.699,-1.376 -2.582,-2.325 -4.01,-3.312" style="fill:none;stroke:#1d1b1e;stroke-width:0.5px;"/><path d="M3.574,17.266c0.368,0.255 0.652,0.94 0.694,1.291c0.052,0.429 0.72,1.115 0.941,1.551c0.122,0.238 0.863,0.452 0.894,0.708c0.031,0.255 0.794,0.639 1.07,0.83c1.185,0.818 2.295,1.315 3.317,2.022c0.369,0.255 1.281,0.569 1.528,1.056c0.224,0.44 1.708,0.747 1.765,1.22c0.057,0.478 0.972,0.911 1.035,1.436c0.101,0.841 0.793,1.667 0.883,2.412c0.043,0.358 0.572,0.725 0.612,1.053c0.011,0.098 0.341,0.146 0.352,0.244c0.101,0.836 2.115,1.446 2.212,2.249c0.02,0.169 0.793,0.532 0.929,0.552c0.174,0.025 0.445,0.308 0.588,0.406c0.477,0.33 1.413,0.754 1.658,1.237c0.082,0.161 0.626,0.273 0.647,0.447c0.018,0.147 0.3,0.252 0.317,0.399c0.047,0.385 0.77,1.523 1.13,1.772" style="fill:none;stroke:#1d1b1e;stroke-width:0.5px;"/><path d="M4.15,14.692c0.164,-0.2 0.807,0.288 1.023,0.437c1.018,0.704 1.908,1.229 2.928,1.934c2.056,1.421 4.326,2.9 6.28,4.251c0.524,0.362 2.041,0.832 2.117,1.463c0.013,0.11 0.36,0.182 0.412,0.285c0.217,0.426 0.892,0.692 0.941,1.1c0.06,0.496 1.608,0.819 1.67,1.335c0.037,0.311 0.666,0.608 0.706,0.938c0.014,0.115 0.398,0.17 0.411,0.285c0.079,0.649 0.945,0.732 1.236,1.304c0.073,0.145 0.594,0.463 0.611,0.603c0.042,0.344 0.505,0.962 0.8,1.273c0.406,0.428 1.347,0.888 1.412,1.426c0.018,0.15 0.52,0.294 0.541,0.464c0.06,0.499 1.13,0.883 1.188,1.362c0.021,0.179 0.889,0.615 1.058,0.731c0.889,0.615 1.336,1.194 2.094,1.718c0.168,0.116 1.037,0.552 1.058,0.731c0.051,0.423 0.556,0.718 0.788,1.175c0.09,0.176 0.683,0.299 0.706,0.488c0.073,0.61 1.009,1.216 1.082,1.829c0.012,0.098 0.341,0.146 0.353,0.244c0.031,0.257 0.387,0.523 0.412,0.735c0.026,0.213 0.422,0.366 0.447,0.579c0.012,0.095 0.308,0.157 0.353,0.244c0.189,0.372 0.551,0.545 0.588,0.857c0.025,0.209 1.038,0.718 1.235,0.854c0.572,0.395 2.018,1.54 2.082,2.069c0.016,0.131 0.455,0.194 0.47,0.325c0.034,0.281 0.465,0.39 0.624,0.701c0.289,0.568 1.03,1.393 1.106,2.026c0.032,0.27 0.652,0.492 0.682,0.742c0.021,0.173 0.565,0.286 0.647,0.447c0.22,0.433 1.203,1.035 1.259,1.5c0.014,0.12 0.593,0.41 0.705,0.488c0.455,0.314 1.326,0.882 1.565,1.351c0.044,0.088 0.341,0.15 0.352,0.244c0.028,0.232 0.338,0.439 0.459,0.678c0.306,0.601 0.599,1.178 0.918,1.805c0.182,0.358 0.767,0.459 0.965,0.847c0.313,0.616 2.162,0.942 2.246,1.643c0.085,0.709 1.597,1.174 1.682,1.883c0.018,0.147 0.406,0.235 0.423,0.383c0.033,0.272 0.515,0.694 0.553,1.012c0.085,0.703 0.679,0.961 1,1.592c0.809,1.591 2.97,2.683 4.611,3.818c0.719,0.497 1.882,1.686 2.752,1.812c0.399,0.057 0.962,0.997 1.352,0.934c0.814,-0.13 1.744,0.672 2.493,0.552c0.252,-0.04 0.597,0.774 0.753,0.881" style="fill:none;stroke:#1d1b1e;stroke-width:0.5px;"/><path d="M64.244,76.855c-0.743,-0.513 -2.202,-0.927 -2.799,-1.754c-0.52,-0.723 -1.709,-1.452 -2.446,-1.961c-0.482,-0.333 -1.964,-1.087 -2.023,-1.578c-0.021,-0.174 -0.565,-0.286 -0.647,-0.448c-0.275,-0.541 -1.174,-0.734 -1.446,-1.27c-0.18,-0.353 -1.069,-0.739 -1.411,-0.975c-1.13,-0.781 -2.149,-1.376 -2.659,-2.378c-0.23,-0.453 -1.123,-0.866 -1.599,-1.196c-0.094,-0.064 -0.576,-0.306 -0.588,-0.406c-0.045,-0.377 -0.884,-0.626 -0.929,-1.003c-0.074,-0.616 -0.512,-1.121 -0.589,-1.758c-0.025,-0.211 -0.344,-0.376 -0.447,-0.579c-0.293,-0.576 -0.79,-1.176 -1.435,-1.622c-0.31,-0.214 -1.096,-0.685 -0.871,-0.962" style="fill:none;stroke:#1d1b1e;stroke-width:0.5px;"/><path d="M5.994,11.644c0.864,0.597 2.304,2.534 3.517,2.34c0.478,-0.077 0.768,1.028 1.246,0.952c0.368,-0.059 1.581,0.282 1.952,0.538" style="fill:none;stroke:#1d1b1e;stroke-width:0.5px;"/><path d="M9.921,12.467c1.503,1.038 3.137,1.819 3.905,3.329c0.439,0.864 1.692,1.516 1.788,2.317c0.026,0.213 0.633,0.332 0.659,0.545c0.084,0.701 1.814,1.185 1.905,1.948c0.04,0.328 1.147,0.569 1.188,0.911c0.04,0.332 0.788,0.424 0.953,0.748c0.529,1.041 2.334,1.482 2.458,2.51c0.032,0.266 0.593,0.45 0.623,0.701c0.123,1.021 2.023,2.028 2.153,3.11c0.024,0.199 0.694,0.386 0.718,0.586c0.022,0.18 0.519,0.284 0.541,0.464c0.058,0.482 1.426,1.165 1.905,1.497c1.702,1.176 3.315,2.201 5.045,3.397c0.272,0.188 1.671,0.89 1.706,1.179c0.029,0.245 0.64,0.398 0.67,0.643c0.022,0.18 0.414,0.301 0.435,0.481c0.04,0.334 0.839,1.211 1.141,1.419" style="fill:none;stroke:#1d1b1e;stroke-width:0.5px;"/><path d="M36.633,39.577c0.805,0.556 1.855,1.546 2.282,2.388c0.161,0.316 0.701,0.451 0.741,0.782c0.02,0.164 0.569,0.243 0.588,0.407c0.05,0.416 0.887,0.693 1.106,1.124c0.356,0.701 1.826,0.84 1.917,1.595c0.018,0.152 0.777,0.537 0.941,0.651c0.927,0.64 1.529,1.237 2.434,1.863c0.169,0.116 1.037,0.552 1.059,0.731c0.027,0.229 0.69,0.357 0.717,0.586c0.043,0.357 0.757,0.739 0.941,1.101c0.067,0.132 0.512,0.224 0.529,0.366c0.051,0.423 0.916,0.825 1.118,1.223c0.082,0.161 0.626,0.273 0.647,0.447c0.033,0.279 0.659,0.549 0.694,0.84c0.019,0.163 0.568,0.242 0.588,0.406c0.036,0.299 0.385,0.532 0.529,0.816c0.052,0.103 0.399,0.175 0.412,0.285c0.027,0.229 0.584,0.374 0.612,0.603c0.046,0.388 0.84,0.828 1.07,1.28c0.345,0.678 1.569,0.835 1.905,1.497c0.111,0.217 0.869,0.499 0.894,0.708c0.044,0.363 0.732,0.464 0.906,0.806c0.259,0.51 1.186,1.091 1.682,1.433c0.824,0.57 2.26,1.312 2.352,2.076c0.021,0.177 0.572,0.375 0.658,0.546c0.411,0.807 2.161,1.583 2.952,2.13c0.169,0.117 1.037,0.552 1.059,0.732c0.022,0.185 0.448,0.399 0.658,0.545c0.631,0.436 1.033,0.804 1.659,1.236c0.261,0.181 0.613,0.601 0.846,0.315" style="fill:none;stroke:#1d1b1e;stroke-width:0.5px;"/><path d="M70.516,65.339c-0.287,-0.198 -0.406,-0.399 -0.623,-0.701c-0.582,-0.807 -1.894,-1.129 -2.682,-1.674c-2.042,-1.411 -4.035,-2.969 -6.021,-4.342c-0.552,-0.381 -1.797,-1.044 -1.858,-1.554c-0.028,-0.23 -0.69,-0.357 -0.718,-0.586c-0.033,-0.279 -0.754,-0.447 -0.788,-0.725c-0.049,-0.406 -1.232,-0.698 -1.423,-1.074c-0.301,-0.593 -1.597,-1.179 -1.67,-1.785c-0.02,-0.164 -0.463,-0.26 -0.482,-0.423c-0.034,-0.279 -0.755,-0.447 -0.788,-0.725c-0.017,-0.14 -0.692,-0.478 -0.824,-0.569c-0.627,-0.434 -1.254,-0.867 -1.881,-1.301c-0.176,-0.121 -0.67,-0.342 -0.765,-0.528c-0.381,-0.75 -1.772,-1.01 -2.152,-1.758c-0.092,-0.18 -0.708,-0.509 -0.729,-0.684c-0.041,-0.344 -0.665,-0.595 -0.706,-0.938c-0.11,-0.918 -1.249,-1.418 -1.353,-2.287c-0.012,-0.098 -0.341,-0.145 -0.353,-0.244c-0.035,-0.294 -0.494,-0.521 -0.529,-0.816c-0.012,-0.098 -0.341,-0.146 -0.353,-0.244c-0.072,-0.594 -1.31,-1.026 -1.377,-1.582c-0.015,-0.131 -0.454,-0.194 -0.47,-0.325c-0.05,-0.42 -0.836,-0.678 -0.882,-1.06c-0.016,-0.131 -0.455,-0.194 -0.471,-0.325c-0.048,-0.407 -1.058,-0.729 -1.105,-1.125c-0.117,-0.968 -1.627,-1.87 -1.742,-2.824c-0.061,-0.51 -1.119,-0.795 -1.176,-1.264c-0.01,-0.082 -0.284,-0.121 -0.294,-0.203c-0.044,-0.368 -0.897,-0.733 -0.941,-1.101c-0.04,-0.33 -0.393,-0.323 -0.565,-0.66c-0.321,-0.632 -1.252,-1.496 -1.964,-1.989c-0.571,-0.395 -1.773,-0.938 -2.07,-1.52c-0.098,-0.193 -0.4,-0.193 -0.423,-0.383c-0.022,-0.18 -0.52,-0.284 -0.541,-0.464c-0.025,-0.206 -0.813,-0.652 -1.012,-0.789c-0.435,-0.301 -2.018,-1.097 -2.069,-1.521c-0.033,-0.268 -0.873,-0.442 -1,-0.691c-0.096,-0.188 -0.766,-0.539 -0.788,-0.725c-0.038,-0.312 -0.879,-0.582 -0.918,-0.904c-0.029,-0.247 -0.485,-0.355 -0.611,-0.603c-0.262,-0.515 -0.916,-0.902 -1.2,-1.46c-0.161,-0.317 -0.676,-0.354 -0.835,-0.667c-0.305,-0.599 -0.715,-0.882 -1.047,-1.535c-0.063,-0.122 -0.527,-0.348 -0.541,-0.464c-0.068,-0.559 -0.92,-1.174 -1.4,-1.778c-0.765,-0.962 -1.381,-1.765 -2.694,-2.672c-0.685,-0.474 -2.09,-1.247 -2.164,-1.856c-0.011,-0.095 -0.308,-0.157 -0.353,-0.244c-0.135,-0.267 -0.437,-0.497 -0.47,-0.776c-0.018,-0.148 -0.586,-0.476 -0.671,-0.643c-0.314,-0.619 -1.336,-0.801 -1.411,-1.426c-0.016,-0.131 -0.455,-0.195 -0.47,-0.326c-0.037,-0.3 -0.794,-0.908 -1.106,-1.124c-0.103,-0.071 -0.634,-0.338 -0.647,-0.447c-0.003,-0.027 0.465,0.141 0.506,0.169" style="fill:none;stroke:#1d1b1e;stroke-width:0.5px;"/><path d="M13.527,5.682c0.221,0.153 0.348,0.684 0.494,0.972c0.144,0.283 0.692,0.386 0.835,0.667c0.3,0.59 0.864,0.957 1.576,1.45" style="fill:none;stroke:#1d1b1e;stroke-width:0.5px;"/><path d="M15.02,5.543c0.049,-0.061 0.33,0.053 0.341,0.146c0.037,0.309 0.585,0.764 0.929,1.002c1.04,0.719 1.933,1.696 3.105,2.507c0.979,0.676 1.543,1.336 2.387,1.92c0.445,0.307 1.282,0.796 1.329,1.189c0.046,0.376 0.99,0.609 1.035,0.986c0.027,0.219 1.088,0.751 1.294,0.894c1.172,0.81 2.382,1.826 3.375,2.513" style="fill:none;stroke:#1d1b1e;stroke-width:0.5px;"/><path d="M31.555,18.414c-0.723,-0.5 -1.452,-0.885 -2.222,-0.996c-0.384,-0.055 -1.004,-0.84 -1.388,-0.779c-0.49,0.078 -0.755,-0.366 -1.293,-0.444c-0.72,-0.103 -1.459,-0.217 -2.116,-0.111c-0.11,0.017 -1.252,0.8 -1.21,1.145c0.055,0.461 0.47,1.856 0.906,2.157" style="fill:none;stroke:#1d1b1e;stroke-width:0.5px;"/><path d="M28.699,19.322c-0.638,-0.442 -1.253,-0.857 -1.893,-0.949c-0.246,-0.035 -0.354,-0.343 -0.576,-0.308c-0.062,0.01 -0.789,-0.281 -0.729,0.217c0.045,0.376 -0.068,0.778 -0.023,1.155c0.045,0.376 0.567,0.677 0.612,1.053c0.025,0.205 0.5,0.31 0.6,0.505c0.329,0.648 1.182,0.976 1.482,1.565c0.118,0.231 0.745,0.363 0.776,0.626c0.066,0.549 0.804,0.86 0.871,1.413c0.01,0.082 0.284,0.121 0.294,0.203c0.058,0.485 1.034,0.979 1.094,1.477c0.02,0.164 0.568,0.243 0.588,0.406c0.039,0.322 0.981,0.536 1.023,0.888c0.028,0.235 0.695,0.57 0.953,0.748c0.517,0.358 1.606,1.111 2.117,1.463c0.78,0.54 2.296,1.785 3.057,1.663c0.373,-0.059 0.929,0.603 1.305,0.542c0.128,-0.02 0.267,0.167 0.4,0.187c0.646,0.093 1.077,0.145 1.563,-0.451" style="fill:none;stroke:#1d1b1e;stroke-width:0.5px;"/><path d="M33.066,29.185c-0.339,0.415 0.899,0.751 0.941,1.101c0.027,0.225 0.646,0.536 0.894,0.708c0.907,0.627 2.028,1.131 2.787,1.656c0.376,0.26 0.974,0.795 1.329,0.738c0.128,-0.02 0.593,0.41 0.705,0.488c0.561,0.388 1.169,0.628 1.799,1.064c2.108,1.456 4.312,3.07 6.48,4.569c0.386,0.266 1.509,0.887 1.553,1.253c0.029,0.246 0.641,0.398 0.67,0.643c0.021,0.171 0.417,0.331 0.436,0.481c0.038,0.319 0.707,0.501 0.741,0.783c0.017,0.141 0.305,0.301 0.305,0.301c0,0 -0.313,-0.216 -0.47,-0.325c-0.333,-0.23 -0.666,-0.46 -1,-0.691" style="fill:none;stroke:#1d1b1e;stroke-width:0.5px;"/><path d="M37.3,32.562c0.412,0.285 2.016,0.628 2.492,0.552c0.212,-0.034 0.459,0.227 0.671,0.193c0.533,-0.085 0.939,-0.2 1.422,-0.278c0.115,-0.018 0.358,-0.203 0.47,-0.125" style="fill:none;stroke:#1d1b1e;stroke-width:0.5px;"/><path d="M43.342,32.596c0.585,0.404 1.084,0.677 1.635,0.589c0.194,-0.031 0.749,-0.946 0.74,-1.02c-0.028,-0.229 0.58,-0.56 0.552,-0.789c-0.052,-0.434 -0.063,-1.124 -0.553,-1.463" style="fill:none;stroke:#1d1b1e;stroke-width:0.5px;"/><path d="M42.458,28.157c-0.179,-0.125 0.049,-0.493 0.024,-0.705c-0.105,-0.873 0.474,-1.882 0.374,-2.713c-0.101,-0.845 0.476,-1.877 0.375,-2.713c-0.023,-0.197 0.376,-0.461 0.352,-0.657c-0.047,-0.398 0.205,-0.986 0.164,-1.328c-0.057,-0.478 0.737,-1.05 0.67,-1.609c-0.074,-0.613 0.105,-1.364 0.034,-1.958c-0.064,-0.529 -0.552,-1 -0.612,-1.504c-0.01,-0.082 0.245,-0.206 0.235,-0.288c-0.056,-0.46 0.511,-1.302 0.963,-1.856" style="fill:none;stroke:#1d1b1e;stroke-width:0.5px;"/><path d="M42.274,12.718c0.051,-0.063 -0.097,0.429 -0.141,0.623c-0.072,0.32 -0.559,0.733 -0.516,1.084c0.045,0.38 -0.625,0.807 -0.717,1.216c-0.141,0.624 -0.403,1.508 -0.881,2.093" style="fill:none;stroke:#1d1b1e;stroke-width:0.5px;"/><path d="M40.593,12.186c-0.207,0.253 -0.237,0.723 -0.211,0.935c0.013,0.115 -0.343,0.288 -0.329,0.403c0.069,0.574 -1.068,1.432 -0.999,2.012c0.042,0.344 -0.605,0.798 -0.563,1.142c0.055,0.458 -0.948,1.086 -0.893,1.544c0.01,0.08 -0.316,0.388 -0.376,0.461c-0.202,0.248 -0.979,1.508 -1.269,1.555c-0.313,0.05 -0.605,0.597 -0.893,0.643c-0.934,0.15 -1.792,0.938 -2.727,1.088c-0.287,0.046 -1.126,-0.086 -1.328,0.162" style="fill:none;stroke:#1d1b1e;stroke-width:0.5px;"/><path d="M34.781,26.633c0.447,-0.548 1.743,-0.58 2.292,-0.668c0.3,-0.048 0.558,-0.439 0.858,-0.487c0.247,-0.04 0.909,-1.114 1.081,-1.325c0.494,-0.605 1.723,-1.809 1.656,-2.368c-0.018,-0.147 0.335,-0.354 0.317,-0.501c-0.027,-0.229 0.06,-1.2 0.211,-1.385" style="fill:none;stroke:#1d1b1e;stroke-width:0.5px;"/><path d="M39.072,4.921c0.032,-0.025 0.214,-0.485 0.317,-0.502c0.406,-0.065 1.423,-0.187 1.829,-0.252c2.317,-0.371 4.066,1.445 6.673,3.246c0.862,0.596 1.762,1.448 2.221,2.169c0.144,0.226 -1.152,1.351 -1.255,1.425c-0.665,0.481 -2.303,-1.244 -3.939,-0.965c-1.306,0.223 -7.777,-3.637 -5.846,-5.121Z" style="fill:#c2976a;fill-opacity:0.745098;stroke:#1d1b1e;stroke-width:0.5px;"/><path d="M41.434,5.435c0.041,-0.049 0.207,0.252 0.212,0.294c0.008,0.061 0.167,0.097 0.174,0.157c0.015,0.124 0.278,0.34 0.429,0.444c0.704,0.487 1.468,0.609 2.042,1.006" style="fill:none;stroke:#1d1b1e;stroke-width:0.5px;"/><path d="M40.457,6.125c0.324,0.224 0.608,0.604 1.012,0.884c0.102,0.07 0.305,0.258 0.405,0.242c0.137,-0.022 0.31,0.258 0.448,0.236c0.072,-0.011 0.168,0.178 0.24,0.167c0.188,-0.03 0.415,0.261 0.602,0.231c0.088,-0.014 0.228,0.189 0.309,0.177c0.213,-0.035 0.546,0.302 0.761,0.267c0.151,-0.024 0.354,0.374 0.505,0.35c0.148,-0.024 0.371,0.269 0.516,0.245c0.412,-0.066 0.678,0.508 1.064,0.035" style="fill:none;stroke:#1d1b1e;stroke-width:0.5px;"/><path d="M34.786,13.667c0.131,-0.161 -0.29,-0.171 -0.306,-0.302c-0.049,-0.409 -1.209,-0.641 -1.258,-1.05c-0.03,-0.245 -0.59,-0.422 -0.624,-0.701c-0.038,-0.315 -0.657,-0.634 -1.023,-0.887c-0.764,-0.528 -1.631,-1.218 -2.481,-1.806c-0.765,-0.528 -2.282,-1.936 -2.365,-2.625c-0.01,-0.082 -0.284,-0.121 -0.294,-0.203c-0.042,-0.347 -0.64,-0.659 -0.823,-1.02c-0.371,-0.729 -1.572,-1.066 -1.941,-1.791c-0.144,-0.283 -0.441,-0.755 -0.706,-0.939" style="fill:none;stroke:#1d1b1e;stroke-width:0.5px;"/><path d="M16.229,2.371c0.364,0.251 0.892,1.379 1.141,1.87c0.125,0.245 0.463,0.257 0.494,0.521c0.023,0.189 0.617,0.312 0.706,0.488c0.335,0.66 1.715,1.276 2.364,1.724c0.999,0.691 1.999,1.382 2.999,2.073c0.334,0.23 0.984,0.562 1.023,0.887c0.025,0.209 0.783,0.491 0.894,0.708c0.187,0.368 1.436,0.733 1.482,1.114c0.023,0.197 0.47,0.326 0.494,0.522c0.045,0.376 0.871,0.963 1.282,1.246" style="fill:none;stroke:#1d1b1e;stroke-width:0.5px;"/><path d="M43.647,29.969c0.691,-0.847 1.404,-2.257 1.103,-2.93c-1.127,-2.521 1.877,-10.636 2.439,-11.19c0.289,-0.284 0.546,-1.339 0.646,-1.719c0.183,-0.689 0.639,-1.772 0.787,-2.429c0.065,-0.291 0.524,-0.574 0.493,-0.829" style="fill:none;stroke:#1d1b1e;stroke-width:0.5px;"/><path d="M44.702,24.844c0.251,0.173 1.146,0.561 1.176,0.813c0.031,0.255 0.648,0.457 0.682,0.742c0.01,0.079 0.396,0.273 0.471,0.325c0.374,0.258 0.629,0.615 1.023,0.887c0.065,0.045 0.403,0.215 0.412,0.285c0.045,0.379 0.93,0.863 1.223,1.205c0.096,0.113 0.63,0.308 0.647,0.448c0.048,0.405 1.003,0.698 1.211,1.107c0.165,0.325 0.886,0.64 0.929,1.003c0.04,0.328 0.192,0.751 0.342,1.046c0.25,0.493 1.215,1.138 1.27,1.599c0.019,0.157 0.795,0.55 0.941,0.65c0.388,0.268 1.426,0.65 1.482,1.115c0.028,0.236 0.77,0.39 0.882,0.609c0.504,0.991 1.9,1.411 2.388,2.371c0.141,0.279 1.081,0.473 1.117,0.773c0.065,0.539 1.344,1.289 1.87,1.652c0.122,0.085 0.749,0.399 0.764,0.529c0.035,0.285 0.634,0.346 0.777,0.626c0.459,0.905 2.312,1.172 2.787,2.107c0.486,0.955 1.197,1.829 1.753,2.923c0.423,0.833 2.372,1.923 3.022,1.819c0.215,-0.034 0.989,0.683 1.176,0.813c1.332,0.921 2.361,1.868 2.953,3.031c0.396,0.779 2.082,1.179 2.176,1.955c0.018,0.148 0.522,0.309 0.541,0.464c0.042,0.348 1.093,0.875 1.282,1.246c0.068,0.134 0.66,0.319 0.541,0.464" style="fill:none;stroke:#1d1b1e;stroke-width:0.5px;"/><path d="M77.872,63.983c0.084,-0.103 -0.189,-0.223 -0.2,-0.318c-0.055,-0.46 -1.172,-0.778 -1.235,-1.304c-0.029,-0.241 -0.71,-0.525 -0.741,-0.782c-0.082,-0.68 -1.565,-1.442 -2.282,-1.938c-0.229,-0.158 -0.649,-0.547 -0.87,-0.511c-0.459,0.073 -1.059,-1.032 -1.517,-0.959c-0.234,0.038 -1.469,-1.004 -1.482,-1.114c-0.016,-0.137 -0.498,-0.179 -0.365,-0.342" style="fill:none;stroke:#1d1b1e;stroke-width:0.5px;"/><path d="M69.087,58.181c-2.323,-1.606 -4.931,-3.228 -7.444,-4.965c-0.639,-0.442 -1.132,-0.872 -1.717,-1.277c-0.112,-0.078 -0.691,-0.368 -0.706,-0.488c-0.037,-0.31 -0.929,-0.55 -0.964,-0.846c-0.072,-0.601 -1.097,-0.809 -1.412,-1.426c-0.175,-0.346 -1.168,-0.751 -1.211,-1.108c-0.043,-0.36 -1.039,-0.568 -1.082,-0.928c-0.038,-0.318 -0.783,-0.721 -1.141,-0.969c-0.937,-0.647 -1.793,-1.689 -2.587,-2.239" style="fill:none;stroke:#1d1b1e;stroke-width:0.5px;"/><path d="M44.971,27.552c0.136,-0.166 0.613,0.455 0.659,0.545c0.312,0.613 0.925,0.967 1,1.592c0.069,0.573 0.405,1.129 0.471,1.677c0.043,0.36 0.51,0.652 0.553,1.012c0.04,0.332 0.496,0.538 0.541,0.915c0.098,0.808 0.632,1.663 0.731,2.486c0.055,0.457 0.106,0.885 0.318,1.301c0.356,0.701 1.078,1.347 1.165,2.066c0.028,0.236 0.423,0.38 0.447,0.579c0.011,0.094 0.308,0.156 0.352,0.244c0.166,0.325 0.788,0.721 0.824,1.02c0.012,0.099 0.439,0.303 0.529,0.365c0.263,0.182 0.829,0.618 0.859,0.864c0.014,0.115 0.398,0.17 0.411,0.285c0.022,0.179 0.7,0.664 0.906,0.806c0.075,0.051 0.461,0.245 0.47,0.325c0.04,0.327 0.82,0.536 0.859,0.864c0.034,0.278 0.755,0.446 0.788,0.724c0.059,0.489 1.478,1.202 1.964,1.538c3.209,2.218 6.499,4.672 9.785,6.944c0.96,0.663 1.921,1.327 2.881,1.991c0.25,0.173 0.914,0.655 1.153,0.617c0.493,-0.079 1.14,1.118 1.634,1.039c0.361,-0.057 1.341,1.287 1.623,0.942" style="fill:none;stroke:#1d1b1e;stroke-width:0.5px;"/><path d="M77.407,52.494c0.584,0.403 1.61,1.283 1.683,1.883c0.033,0.275 0.547,0.521 0.588,0.857c0.042,0.355 0.944,0.678 0.988,1.043c0.054,0.452 1.264,0.686 1.482,1.115c0.14,0.276 1.096,0.598 1.129,0.87c0.03,0.255 0.794,0.639 1.07,0.83c1.078,0.745 2.156,1.49 3.234,2.236" style="fill:none;stroke:#1d1b1e;stroke-width:0.5px;"/><path d="M77.12,65.355c-2.363,-1.633 -4.881,-3.104 -7.314,-4.786c-0.979,-0.676 -2.503,-2.065 -3.611,-2.225c-0.726,-0.104 -1.397,-1.278 -2.081,-1.168c-0.159,0.025 -0.359,-0.293 -0.518,-0.268c-0.211,0.034 -0.494,-0.522 -0.705,-0.488c-0.221,0.036 -0.641,-0.353 -0.87,-0.511c-0.43,-0.297 -0.956,-0.391 -1.376,-0.681c-0.211,-0.145 -0.554,-0.462 -0.753,-0.43c-0.214,0.034 -0.557,-0.462 -0.752,-0.43c-0.355,0.057 -0.986,-0.501 -1.329,-0.739c-0.691,-0.477 -3.335,-1.548 -2.611,-2.435" style="fill:none;stroke:#1d1b1e;stroke-width:0.5px;"/></svg>